{
.appVersion = "939";
copyright = "Copyright 2016 Jeremy Tribby. SIL OFL License v1.1.";
date = "2016-07-12 00:27:02 +0000";
designer = "Jeremy Tribby";
designerURL = "http://tribby.com/";
familyName = Barlow;
featurePrefixes = (
{
automatic = 1;
code = "languagesystem DFLT dflt;\012";
name = Languagesystems;
}
);
features = (
{
automatic = 1;
code = "sub hyphen hyphen by hyphen_hyphen.liga;\012";
name = liga;
}
);
fontMaster = (
{
alignmentZones = (
"{800, 16}",
"{700, 10}",
"{500, 9}",
"{0, -10}",
"{-200, -3}"
);
ascender = 800;
capHeight = 700;
customParameters = (
{
name = paramArea;
value = "488";
},
{
name = paramDepth;
value = "16";
},
{
name = paramOver;
value = "0";
}
);
descender = -200;
horizontalStems = (
22,
22
);
id = "262880E7-CFE1-4BDA-902E-E24798F3240A";
userData = {
GSCornerRadius = 8;
GSOffsetHorizontal = 80;
GSOffsetMakeStroke = 1;
GSOffsetVertical = 80;
noodleExtremesAndInflections = 1;
noodleRemoveOverlap = 1;
noodleThickness = "22.0";
};
verticalStems = (
21,
21
);
visible = 1;
weight = Light;
weightValue = 23;
xHeight = 500;
},
{
alignmentZones = (
"{800, 16}",
"{700, 13}",
"{520, 13}",
"{0, -13}",
"{-200, -10}"
);
ascender = 800;
capHeight = 700;
customParameters = (
{
name = paramArea;
value = "488";
},
{
name = paramDepth;
value = "16";
},
{
name = paramOver;
value = "0";
}
);
descender = -200;
horizontalStems = (
188,
188
);
id = "4E2227F3-52E4-4048-A8EE-327B486EF0A4";
userData = {
GSCornerRadius = 8;
GSOffsetHorizontal = 104;
GSOffsetMakeStroke = 1;
GSOffsetVertical = 95;
noodleExtremesAndInflections = 1;
noodleRemoveOverlap = 1;
noodleThickness = "22.0";
};
verticalStems = (
170,
161
);
visible = 1;
weight = Bold;
weightValue = 188;
xHeight = 520;
}
);
glyphs = (
{
color = 3;
glyphname = A;
lastChange = "2016-12-01 05:29:17 +0000";
layers = (
{
layerId = "262880E7-CFE1-4BDA-902E-E24798F3240A";
paths = (
{
closed = 1;
nodes = (
"50 0 LINE",
"230 658 LINE",
"409 0 LINE",
"432 0 LINE",
"241 700 LINE",
"218 700 LINE",
"27 0 LINE"
);
},
{
closed = 1;
nodes = (
"379 155 LINE",
"379 176 LINE",
"84 176 LINE",
"84 155 LINE"
);
}
);
width = 459;
},
{
layerId = "4E2227F3-52E4-4048-A8EE-327B486EF0A4";
paths = (
{
closed = 1;
nodes = (
"194 0 LINE",
"280 449 LINE",
"352 0 LINE",
"545 0 LINE",
"381 700 LINE",
"170 700 LINE",
"6 0 LINE"
);
},
{
closed = 1;
nodes = (
"413 100 LINE",
"413 244 LINE",
"134 244 LINE",
"134 100 LINE"
);
}
);
width = 551;
},
{
associatedMasterId = "262880E7-CFE1-4BDA-902E-E24798F3240A";
layerId = "1274BDA7-A57A-49E6-A7E6-98647C4EC339";
name = "{95,100}";
paths = (
{
closed = 1;
nodes = (
"112 0 LINE",
"251 567 LINE",
"383 0 LINE",
"480 0 LINE",
"301 700 LINE",
"196 700 LINE",
"17 0 LINE"
);
},
{
closed = 1;
nodes = (
"393 130 LINE",
"393 220 LINE",
"105 220 LINE",
"105 130 LINE"
);
}
);
width = 498;
}
);
leftKerningGroup = A;
rightKerningGroup = A;
unicode = 0041;
},
{
color = 3;
glyphname = B;
lastChange = "2016-12-01 05:29:17 +0000";
layers = (
{
layerId = "262880E7-CFE1-4BDA-902E-E24798F3240A";
paths = (
{
closed = 1;
nodes = (
"94 679 LINE",
"243 679 LINE SMOOTH",
"335 679 OFFCURVE",
"395 617 OFFCURVE",
"395 523 CURVE SMOOTH",
"395 432 OFFCURVE",
"335 372 OFFCURVE",
"243 372 CURVE SMOOTH",
"94 372 LINE"
);
},
{
closed = 1;
nodes = (
"243 351 LINE SMOOTH",
"348 351 OFFCURVE",
"417 420 OFFCURVE",
"417 523 CURVE SMOOTH",
"417 629 OFFCURVE",
"348 700 OFFCURVE",
"243 700 CURVE SMOOTH",
"72 700 LINE",
"72 351 LINE"
);
},
{
closed = 1;
nodes = (
"94 351 LINE",
"243 351 LINE SMOOTH",
"335 351 OFFCURVE",
"396 284 OFFCURVE",
"396 186 CURVE SMOOTH",
"396 88 OFFCURVE",
"335 22 OFFCURVE",
"243 22 CURVE SMOOTH",
"94 22 LINE"
);
},
{
closed = 1;
nodes = (
"243 0 LINE SMOOTH",
"348 0 OFFCURVE",
"418 74 OFFCURVE",
"418 186 CURVE SMOOTH",
"418 298 OFFCURVE",
"348 372 OFFCURVE",
"243 372 CURVE SMOOTH",
"72 372 LINE",
"72 0 LINE"
);
}
);
width = 463;
},
{
layerId = "4E2227F3-52E4-4048-A8EE-327B486EF0A4";
paths = (
{
closed = 1;
nodes = (
"204 530 LINE",
"234 530 LINE",
"261 530 OFFCURVE",
"279 512 OFFCURVE",
"279 479 CURVE SMOOTH",
"279 446 OFFCURVE",
"261 425 OFFCURVE",
"234 425 CURVE",
"204 425 LINE"
);
},
{
closed = 1;
nodes = (
"188 317 LINE SMOOTH",
"376 317 OFFCURVE",
"467 367 OFFCURVE",
"467 503 CURVE SMOOTH",
"467 640 OFFCURVE",
"371 700 OFFCURVE",
"226 700 CURVE",
"16 700 LINE",
"16 317 LINE"
);
},
{
closed = 1;
nodes = (
"204 286 LINE",
"241 286 LINE SMOOTH",
"272 286 OFFCURVE",
"292 260 OFFCURVE",
"292 225 CURVE SMOOTH",
"292 190 OFFCURVE",
"271 170 OFFCURVE",
"240 170 CURVE SMOOTH",
"204 170 LINE"
);
},
{
closed = 1;
nodes = (
"255 0 LINE SMOOTH",
"380 0 OFFCURVE",
"480 63 OFFCURVE",
"480 204 CURVE SMOOTH",
"480 355 OFFCURVE",
"318 411 OFFCURVE",
"188 411 CURVE",
"16 411 LINE",
"16 0 LINE"
);
}
);
width = 490;
},
{
associatedMasterId = "262880E7-CFE1-4BDA-902E-E24798F3240A";
layerId = "93E0B52A-A210-4120-ABA1-15C31411DBBB";
name = "{95,100}";
paths = (
{
closed = 1;
nodes = (
"146 612 LINE",
"241 612 LINE SMOOTH",
"308 612 OFFCURVE",
"351 570 OFFCURVE",
"351 504 CURVE SMOOTH",
"351 439 OFFCURVE",
"308 398 OFFCURVE",
"241 398 CURVE SMOOTH",
"146 398 LINE"
);
},
{
closed = 1;
nodes = (
"239 329 LINE SMOOTH",
"365 329 OFFCURVE",
"443 399 OFFCURVE",
"443 514 CURVE SMOOTH",
"443 629 OFFCURVE",
"363 700 OFFCURVE",
"234 700 CURVE SMOOTH",
"51 700 LINE",
"51 329 LINE"
);
},
{
closed = 1;
nodes = (
"146 317 LINE",
"241 317 LINE SMOOTH",
"311 317 OFFCURVE",
"354 273 OFFCURVE",
"354 205 CURVE SMOOTH",
"354 135 OFFCURVE",
"311 89 OFFCURVE",
"241 89 CURVE SMOOTH",
"146 89 LINE"
);
},
{
closed = 1;
nodes = (
"248 0 LINE SMOOTH",
"372 0 OFFCURVE",
"449 74 OFFCURVE",
"449 193 CURVE SMOOTH",
"449 316 OFFCURVE",
"369 393 OFFCURVE",
"241 393 CURVE SMOOTH",
"51 393 LINE",
"51 0 LINE"
);
}
);
width = 470;
}
);
leftKerningGroup = H;
rightKerningGroup = B;
unicode = 0042;
},
{
color = 3;
glyphname = C;
lastChange = "2016-12-01 05:29:17 +0000";
layers = (
{
layerId = "262880E7-CFE1-4BDA-902E-E24798F3240A";
paths = (
{
closed = 1;
nodes = (
"341 -9 OFFCURVE",
"408 56 OFFCURVE",
"408 154 CURVE SMOOTH",
"408 179 LINE",
"385 179 LINE",
"385 152 LINE SMOOTH",
"385 68 OFFCURVE",
"328 12 OFFCURVE",
"240 12 CURVE SMOOTH",
"152 12 OFFCURVE",
"94 68 OFFCURVE",
"94 152 CURVE SMOOTH",
"94 548 LINE SMOOTH",
"94 632 OFFCURVE",
"152 688 OFFCURVE",
"240 688 CURVE SMOOTH",
"328 688 OFFCURVE",
"385 632 OFFCURVE",
"385 548 CURVE SMOOTH",
"385 520 LINE",
"408 520 LINE",
"408 546 LINE SMOOTH",
"408 644 OFFCURVE",
"341 709 OFFCURVE",
"240 709 CURVE SMOOTH",
"139 709 OFFCURVE",
"72 644 OFFCURVE",
"72 546 CURVE SMOOTH",
"72 154 LINE SMOOTH",
"72 56 OFFCURVE",
"139 -9 OFFCURVE",
"240 -9 CURVE SMOOTH"
);
}
);
width = 453;
},
{
layerId = "4E2227F3-52E4-4048-A8EE-327B486EF0A4";
paths = (
{
closed = 1;
nodes = (
"375 -11 OFFCURVE",
"464 75 OFFCURVE",
"464 205 CURVE SMOOTH",
"464 231 LINE",
"276 231 LINE",
"276 194 LINE SMOOTH",
"276 168 OFFCURVE",
"262 150 OFFCURVE",
"240 150 CURVE SMOOTH",
"219 150 OFFCURVE",
"204 168 OFFCURVE",
"204 194 CURVE SMOOTH",
"204 508 LINE SMOOTH",
"204 534 OFFCURVE",
"219 552 OFFCURVE",
"240 552 CURVE SMOOTH",
"262 552 OFFCURVE",
"276 534 OFFCURVE",
"276 508 CURVE SMOOTH",
"276 470 LINE",
"464 470 LINE",
"464 497 LINE SMOOTH",
"464 627 OFFCURVE",
"375 713 OFFCURVE",
"240 713 CURVE SMOOTH",
"106 713 OFFCURVE",
"16 627 OFFCURVE",
"16 497 CURVE SMOOTH",
"16 205 LINE SMOOTH",
"16 75 OFFCURVE",
"106 -11 OFFCURVE",
"240 -11 CURVE SMOOTH"
);
}
);
width = 474;
},
{
associatedMasterId = "262880E7-CFE1-4BDA-902E-E24798F3240A";
layerId = "720A3B58-5B9D-4DCC-84D4-46C8C80683FD";
name = "{95,100}";
paths = (
{
closed = 1;
nodes = (
"350 -10 OFFCURVE",
"427 64 OFFCURVE",
"427 176 CURVE SMOOTH",
"427 202 LINE",
"332 202 LINE",
"332 178 LINE SMOOTH",
"332 120 OFFCURVE",
"293 80 OFFCURVE",
"234 80 CURVE SMOOTH",
"175 80 OFFCURVE",
"136 120 OFFCURVE",
"136 178 CURVE SMOOTH",
"136 523 LINE SMOOTH",
"136 581 OFFCURVE",
"175 621 OFFCURVE",
"234 621 CURVE SMOOTH",
"293 621 OFFCURVE",
"332 581 OFFCURVE",
"332 523 CURVE SMOOTH",
"332 498 LINE",
"427 498 LINE",
"427 525 LINE SMOOTH",
"427 637 OFFCURVE",
"350 711 OFFCURVE",
"234 711 CURVE SMOOTH",
"119 711 OFFCURVE",
"42 637 OFFCURVE",
"42 525 CURVE SMOOTH",
"42 176 LINE SMOOTH",
"42 64 OFFCURVE",
"119 -10 OFFCURVE",
"234 -10 CURVE SMOOTH"
);
}
);
width = 452;
}
);
leftKerningGroup = O;
rightKerningGroup = C;
unicode = 0043;
},
{
color = 3;
glyphname = D;
lastChange = "2016-12-01 05:29:17 +0000";
layers = (
{
layerId = "262880E7-CFE1-4BDA-902E-E24798F3240A";
paths = (
{
closed = 1;
nodes = (
"244 0 LINE SMOOTH",
"346 0 OFFCURVE",
"409 68 OFFCURVE",
"409 180 CURVE SMOOTH",
"409 520 LINE SMOOTH",
"409 632 OFFCURVE",
"346 700 OFFCURVE",
"244 700 CURVE SMOOTH",
"81 700 LINE",
"81 0 LINE"
);
},
{
closed = 1;
nodes = (
"103 679 LINE",
"246 679 LINE SMOOTH",
"333 679 OFFCURVE",
"387 619 OFFCURVE",
"387 520 CURVE SMOOTH",
"387 179 LINE SMOOTH",
"387 81 OFFCURVE",
"333 21 OFFCURVE",
"246 21 CURVE SMOOTH",
"103 21 LINE"
);
}
);
width = 472;
},
{
layerId = "4E2227F3-52E4-4048-A8EE-327B486EF0A4";
paths = (
{
closed = 1;
nodes = (
"235 0 LINE SMOOTH",
"371 0 OFFCURVE",
"462 80 OFFCURVE",
"462 200 CURVE SMOOTH",
"462 500 LINE SMOOTH",
"462 620 OFFCURVE",
"371 700 OFFCURVE",
"235 700 CURVE SMOOTH",
"18 700 LINE",
"18 0 LINE"
);
},
{
closed = 1;
nodes = (
"206 530 LINE",
"230 530 LINE SMOOTH",
"256 530 OFFCURVE",
"274 510 OFFCURVE",
"274 479 CURVE",
"274 222 LINE",
"272 192 OFFCURVE",
"254 172 OFFCURVE",
"230 171 CURVE SMOOTH",
"206 170 LINE"
);
}
);
width = 476;
},
{
associatedMasterId = "262880E7-CFE1-4BDA-902E-E24798F3240A";
layerId = "2C84FD61-1044-497C-B585-08307607F25A";
name = "{95,100}";
paths = (
{
closed = 1;
nodes = (
"233 0 LINE SMOOTH",
"350 0 OFFCURVE",
"425 73 OFFCURVE",
"425 189 CURVE SMOOTH",
"425 511 LINE SMOOTH",
"425 627 OFFCURVE",
"350 700 OFFCURVE",
"233 700 CURVE SMOOTH",
"47 700 LINE",
"47 0 LINE"
);
},
{
closed = 1;
nodes = (
"141 610 LINE",
"232 610 LINE SMOOTH",
"293 610 OFFCURVE",
"331 567 OFFCURVE",
"331 498 CURVE SMOOTH",
"331 202 LINE SMOOTH",
"331 133 OFFCURVE",
"292 90 OFFCURVE",
"232 90 CURVE SMOOTH",
"141 90 LINE"
);
}
);
width = 462;
}
);
leftKerningGroup = H;
rightKerningGroup = B;
unicode = 0044;
},
{
color = 3;
glyphname = E;
lastChange = "2016-12-01 07:10:29 +0000";
layers = (
{
layerId = "262880E7-CFE1-4BDA-902E-E24798F3240A";
paths = (
{
closed = 1;
nodes = (
"407 0 LINE",
"407 21 LINE",
"103 21 LINE",
"103 679 LINE",
"407 679 LINE",
"407 700 LINE",
"81 700 LINE",
"81 0 LINE"
);
},
{
closed = 1;
nodes = (
"314 340 LINE",
"314 361 LINE",
"92 361 LINE",
"92 340 LINE"
);
}
);
width = 453;
},
{
layerId = "4E2227F3-52E4-4048-A8EE-327B486EF0A4";
paths = (
{
closed = 1;
nodes = (
"438 0 LINE",
"438 170 LINE",
"206 170 LINE",
"206 530 LINE",
"438 530 LINE",
"438 700 LINE",
"18 700 LINE",
"18 0 LINE"
);
},
{
closed = 1;
nodes = (
"343 265 LINE",
"343 435 LINE",
"94 435 LINE",
"94 265 LINE"
);
}
);
width = 446;
},
{
associatedMasterId = "262880E7-CFE1-4BDA-902E-E24798F3240A";
layerId = "7AF0CB16-15C6-4853-92DB-28FAD9498105";
name = "{95,100}";
paths = (
{
closed = 1;
nodes = (
"414 0 LINE",
"414 90 LINE",
"141 90 LINE",
"141 610 LINE",
"414 610 LINE",
"414 700 LINE",
"47 700 LINE",
"47 0 LINE"
);
},
{
closed = 1;
nodes = (
"320 305 LINE",
"320 395 LINE",
"86 395 LINE",
"86 305 LINE"
);
}
);
width = 434;
}
);
leftKerningGroup = H;
unicode = 0045;
},
{
color = 3;
glyphname = F;
lastChange = "2016-12-01 05:29:17 +0000";
layers = (
{
layerId = "262880E7-CFE1-4BDA-902E-E24798F3240A";
paths = (
{
closed = 1;
nodes = (
"103 0 LINE",
"103 679 LINE",
"406 679 LINE",
"406 700 LINE",
"81 700 LINE",
"81 0 LINE"
);
},
{
closed = 1;
nodes = (
"313 340 LINE",
"313 361 LINE",
"92 361 LINE",
"92 340 LINE"
);
}
);
width = 433;
},
{
layerId = "4E2227F3-52E4-4048-A8EE-327B486EF0A4";
paths = (
{
closed = 1;
nodes = (
"206 0 LINE",
"206 530 LINE",
"438 530 LINE",
"438 700 LINE",
"18 700 LINE",
"18 0 LINE"
);
},
{
closed = 1;
nodes = (
"343 265 LINE",
"343 435 LINE",
"94 435 LINE",
"94 265 LINE"
);
}
);
width = 444;
},
{
associatedMasterId = "262880E7-CFE1-4BDA-902E-E24798F3240A";
layerId = "9C1922F2-4246-4C06-8262-FD2BFEB23C93";
name = "{95,100}";
paths = (
{
closed = 1;
nodes = (
"141 0 LINE",
"141 610 LINE",
"413 610 LINE",
"413 700 LINE",
"47 700 LINE",
"47 0 LINE"
);
},
{
closed = 1;
nodes = (
"319 305 LINE",
"319 395 LINE",
"86 395 LINE",
"86 305 LINE"
);
}
);
width = 428;
}
);
leftKerningGroup = H;
unicode = 0046;
},
{
color = 3;
glyphname = G;
lastChange = "2016-12-01 07:10:06 +0000";
layers = (
{
layerId = "262880E7-CFE1-4BDA-902E-E24798F3240A";
paths = (
{
closed = 1;
nodes = (
"341 -9 OFFCURVE",
"407 56 OFFCURVE",
"407 154 CURVE SMOOTH",
"407 361 LINE",
"248 361 LINE",
"248 340 LINE",
"385 340 LINE",
"385 152 LINE SMOOTH",
"385 68 OFFCURVE",
"328 12 OFFCURVE",
"240 12 CURVE SMOOTH",
"152 12 OFFCURVE",
"94 68 OFFCURVE",
"94 152 CURVE SMOOTH",
"94 548 LINE SMOOTH",
"94 632 OFFCURVE",
"152 688 OFFCURVE",
"240 688 CURVE SMOOTH",
"328 688 OFFCURVE",
"385 632 OFFCURVE",
"385 548 CURVE SMOOTH",
"385 500 LINE",
"407 500 LINE",
"407 546 LINE SMOOTH",
"407 644 OFFCURVE",
"341 709 OFFCURVE",
"240 709 CURVE SMOOTH",
"139 709 OFFCURVE",
"72 644 OFFCURVE",
"72 546 CURVE SMOOTH",
"72 154 LINE SMOOTH",
"72 56 OFFCURVE",
"139 -9 OFFCURVE",
"240 -9 CURVE SMOOTH"
);
}
);
width = 462;
},
{
layerId = "4E2227F3-52E4-4048-A8EE-327B486EF0A4";
paths = (
{
closed = 1;
nodes = (
"371 -11 OFFCURVE",
"460 72 OFFCURVE",
"460 196 CURVE SMOOTH",
"460 380 LINE",
"240 380 LINE",
"240 271 LINE",
"272 271 LINE",
"272 192 LINE SMOOTH",
"272 167 OFFCURVE",
"258 150 OFFCURVE",
"238 150 CURVE SMOOTH",
"218 150 OFFCURVE",
"204 167 OFFCURVE",
"204 192 CURVE SMOOTH",
"204 509 LINE SMOOTH",
"204 534 OFFCURVE",
"218 551 OFFCURVE",
"238 551 CURVE SMOOTH",
"258 551 OFFCURVE",
"272 534 OFFCURVE",
"272 509 CURVE SMOOTH",
"272 430 LINE",
"460 430 LINE",
"460 503 LINE SMOOTH",
"460 628 OFFCURVE",
"371 712 OFFCURVE",
"238 712 CURVE SMOOTH",
"105 712 OFFCURVE",
"16 629 OFFCURVE",
"16 505 CURVE SMOOTH",
"16 196 LINE SMOOTH",
"16 72 OFFCURVE",
"105 -11 OFFCURVE",
"238 -11 CURVE SMOOTH"
);
}
);
width = 470;
},
{
associatedMasterId = "262880E7-CFE1-4BDA-902E-E24798F3240A";
layerId = "81F7C966-F8F1-415C-A234-62D5C18AA009";
name = "{95,100}";
paths = (
{
closed = 1;
nodes = (
"348 -10 OFFCURVE",
"424 63 OFFCURVE",
"424 172 CURVE SMOOTH",
"424 375 LINE",
"239 375 LINE",
"239 300 LINE",
"330 300 LINE",
"330 177 LINE SMOOTH",
"330 119 OFFCURVE",
"292 80 OFFCURVE",
"233 80 CURVE SMOOTH",
"175 80 OFFCURVE",
"136 119 OFFCURVE",
"136 177 CURVE SMOOTH",
"136 523 LINE SMOOTH",
"136 581 OFFCURVE",
"175 620 OFFCURVE",
"233 620 CURVE SMOOTH",
"292 620 OFFCURVE",
"330 581 OFFCURVE",
"330 523 CURVE SMOOTH",
"330 469 LINE",
"424 469 LINE",
"424 527 LINE SMOOTH",
"424 637 OFFCURVE",
"348 710 OFFCURVE",
"233 710 CURVE SMOOTH",
"118 710 OFFCURVE",
"42 637 OFFCURVE",
"42 528 CURVE SMOOTH",
"42 172 LINE SMOOTH",
"42 63 OFFCURVE",
"118 -10 OFFCURVE",
"233 -10 CURVE SMOOTH"
);
}
);
width = 450;
}
);
leftKerningGroup = O;
rightKerningGroup = G;
unicode = 0047;
},
{
color = 3;
glyphname = H;
lastChange = "2016-12-01 05:29:17 +0000";
layers = (
{
layerId = "262880E7-CFE1-4BDA-902E-E24798F3240A";
paths = (
{
closed = 1;
nodes = (
"409 0 LINE",
"409 700 LINE",
"386 700 LINE",
"386 0 LINE"
);
},
{
closed = 1;
nodes = (
"103 0 LINE",
"103 700 LINE",
"81 700 LINE",
"81 0 LINE"
);
},
{
closed = 1;
nodes = (
"392 340 LINE",
"392 361 LINE",
"98 361 LINE",
"98 340 LINE"
);
}
);
width = 490;
},
{
layerId = "4E2227F3-52E4-4048-A8EE-327B486EF0A4";
paths = (
{
closed = 1;
nodes = (
"452 0 LINE",
"452 700 LINE",
"264 700 LINE",
"264 0 LINE"
);
},
{
closed = 1;
nodes = (
"206 0 LINE",
"206 700 LINE",
"18 700 LINE",
"18 0 LINE"
);
},
{
closed = 1;
nodes = (
"359 265 LINE",
"359 435 LINE",
"114 435 LINE",
"114 265 LINE"
);
}
);
width = 470;
},
{
associatedMasterId = "262880E7-CFE1-4BDA-902E-E24798F3240A";
layerId = "31823E21-3C14-46CD-9A59-ED0DFD05051D";
name = "{95,100}";
paths = (
{
closed = 1;
nodes = (
"421 0 LINE",
"421 700 LINE",
"326 700 LINE",
"326 0 LINE"
);
},
{
closed = 1;
nodes = (
"141 0 LINE",
"141 700 LINE",
"47 700 LINE",
"47 0 LINE"
);
},
{
closed = 1;
nodes = (
"371 305 LINE",
"371 395 LINE",
"98 395 LINE",
"98 305 LINE"
);
}
);
width = 468;
}
);
unicode = 0048;
},
{
glyphname = I;
lastChange = "2016-12-01 05:29:17 +0000";
layers = (
{
layerId = "262880E7-CFE1-4BDA-902E-E24798F3240A";
paths = (
{
closed = 1;
nodes = (
"103 0 LINE",
"103 700 LINE",
"81 700 LINE",
"81 0 LINE"
);
}
);
width = 184;
},
{
layerId = "4E2227F3-52E4-4048-A8EE-327B486EF0A4";
paths = (
{
closed = 1;
nodes = (
"206 0 LINE",
"206 700 LINE",
"18 700 LINE",
"18 0 LINE"
);
}
);
width = 224;
}
);
unicode = 0049;
},
{
color = 3;
glyphname = J;
lastChange = "2016-12-01 05:29:17 +0000";
layers = (
{
layerId = "262880E7-CFE1-4BDA-902E-E24798F3240A";
paths = (
{
closed = 1;
nodes = (
"288 -9 OFFCURVE",
"353 56 OFFCURVE",
"353 154 CURVE SMOOTH",
"353 700 LINE",
"331 700 LINE",
"331 152 LINE SMOOTH",
"331 68 OFFCURVE",
"274 12 OFFCURVE",
"190 12 CURVE SMOOTH",
"106 12 OFFCURVE",
"49 68 OFFCURVE",
"49 152 CURVE SMOOTH",
"49 234 LINE",
"27 234 LINE",
"27 154 LINE SMOOTH",
"27 56 OFFCURVE",
"92 -9 OFFCURVE",
"190 -9 CURVE SMOOTH"
);
}
);
width = 434;
},
{
layerId = "4E2227F3-52E4-4048-A8EE-327B486EF0A4";
paths = (
{
closed = 1;
nodes = (
"362 -8 OFFCURVE",
"451 72 OFFCURVE",
"451 192 CURVE SMOOTH",
"451 700 LINE",
"263 700 LINE",
"263 204 LINE SMOOTH",
"263 179 OFFCURVE",
"249 162 OFFCURVE",
"228 162 CURVE SMOOTH",
"208 162 OFFCURVE",
"194 179 OFFCURVE",
"194 204 CURVE SMOOTH",
"194 265 LINE",
"6 265 LINE",
"6 192 LINE SMOOTH",
"6 72 OFFCURVE",
"95 -8 OFFCURVE",
"228 -8 CURVE SMOOTH"
);
}
);
width = 469;
},
{
associatedMasterId = "262880E7-CFE1-4BDA-902E-E24798F3240A";
layerId = "65148597-B97A-49CF-A63D-3D6183A855C1";
name = "{95,100}";
paths = (
{
closed = 1;
nodes = (
"317 -9 OFFCURVE",
"393 63 OFFCURVE",
"393 171 CURVE SMOOTH",
"393 700 LINE",
"298 700 LINE",
"298 179 LINE SMOOTH",
"298 120 OFFCURVE",
"260 81 OFFCURVE",
"204 81 CURVE SMOOTH",
"148 81 OFFCURVE",
"109 120 OFFCURVE",
"109 179 CURVE SMOOTH",
"109 248 LINE",
"15 248 LINE",
"15 171 LINE SMOOTH",
"15 63 OFFCURVE",
"90 -9 OFFCURVE",
"204 -9 CURVE SMOOTH"
);
}
);
width = 439;
}
);
leftKerningGroup = J;
rightKerningGroup = U;
unicode = 004A;
},
{
glyphname = K;
lastChange = "2016-12-01 05:29:17 +0000";
layers = (
{
layerId = "262880E7-CFE1-4BDA-902E-E24798F3240A";
paths = (
{
closed = 1;
nodes = (
"103 0 LINE",
"103 274 LINE",
"204 406 LINE",
"419 0 LINE",
"447 0 LINE",
"220 427 LINE",
"427 700 LINE",
"399 700 LINE",
"103 308 LINE",
"103 700 LINE",
"81 700 LINE",
"81 0 LINE"
);
}
);
width = 447;
},
{
layerId = "4E2227F3-52E4-4048-A8EE-327B486EF0A4";
paths = (
{
closed = 1;
nodes = (
"206 0 LINE",
"206 183 LINE",
"234 246 LINE",
"288 -4 LINE",
"486 0 LINE",
"356 392 LINE",
"489 700 LINE",
"291 700 LINE",
"206 447 LINE",
"206 700 LINE",
"18 700 LINE",
"18 0 LINE"
);
}
);
width = 489;
}
);
rightKerningGroup = K;
unicode = 004B;
},
{
color = 3;
glyphname = L;
lastChange = "2016-12-01 05:29:17 +0000";
layers = (
{
layerId = "262880E7-CFE1-4BDA-902E-E24798F3240A";
paths = (
{
closed = 1;
nodes = (
"398 0 LINE",
"398 21 LINE",
"103 21 LINE",
"103 700 LINE",
"81 700 LINE",
"81 0 LINE"
);
}
);
width = 416;
},
{
layerId = "4E2227F3-52E4-4048-A8EE-327B486EF0A4";
paths = (
{
closed = 1;
nodes = (
"438 0 LINE",
"438 170 LINE",
"206 170 LINE",
"206 700 LINE",
"18 700 LINE",
"18 0 LINE"
);
}
);
width = 442;
},
{
associatedMasterId = "262880E7-CFE1-4BDA-902E-E24798F3240A";
layerId = "B734E69C-2AF6-42EC-9D16-BBE1A7449BD3";
name = "{95,100}";
paths = (
{
closed = 1;
nodes = (
"409 0 LINE",
"409 90 LINE",
"141 90 LINE",
"141 700 LINE",
"47 700 LINE",
"47 0 LINE"
);
}
);
width = 419;
}
);
rightKerningGroup = L;
unicode = 004C;
},
{
color = 3;
glyphname = M;
lastChange = "2016-12-01 05:29:17 +0000";
layers = (
{
layerId = "262880E7-CFE1-4BDA-902E-E24798F3240A";
paths = (
{
closed = 1;
nodes = (
"94 0 LINE",
"94 651 LINE",
"253 327 LINE",
"412 651 LINE",
"412 0 LINE",
"434 0 LINE",
"434 700 LINE",
"412 700 LINE",
"253 372 LINE",
"94 700 LINE",
"72 700 LINE",
"72 0 LINE"
);
}
);
width = 506;
},
{
layerId = "4E2227F3-52E4-4048-A8EE-327B486EF0A4";
paths = (
{
closed = 1;
nodes = (
"204 0 LINE",
"204 434 LINE",
"262 296 LINE",
"319 431 LINE",
"319 0 LINE",
"507 0 LINE",
"507 700 LINE",
"324 700 LINE",
"262 562 LINE",
"199 700 LINE",
"16 700 LINE",
"16 0 LINE"
);
}
);
width = 523;
},
{
associatedMasterId = "262880E7-CFE1-4BDA-902E-E24798F3240A";
layerId = "187E669A-7479-4BB4-826A-9BA31BA174C6";
name = "{95,100}";
paths = (
{
closed = 1;
nodes = (
"136 0 LINE",
"136 516 LINE",
"251 304 LINE",
"365 515 LINE",
"365 0 LINE",
"460 0 LINE",
"460 700 LINE",
"367 700 LINE",
"251 462 LINE",
"134 700 LINE",
"41 700 LINE",
"41 0 LINE"
);
}
);
width = 501;
}
);
unicode = 004D;
},
{
color = 3;
glyphname = N;
lastChange = "2016-12-01 05:29:17 +0000";
layers = (
{
layerId = "262880E7-CFE1-4BDA-902E-E24798F3240A";
paths = (
{
closed = 1;
nodes = (
"94 0 LINE",
"94 647 LINE",
"394 0 LINE",
"416 0 LINE",
"416 700 LINE",
"394 700 LINE",
"394 53 LINE",
"94 700 LINE",
"72 700 LINE",
"72 0 LINE"
);
}
);
width = 488;
},
{
layerId = "4E2227F3-52E4-4048-A8EE-327B486EF0A4";
paths = (
{
closed = 1;
nodes = (
"202 0 LINE",
"200 346 LINE",
"282 0 LINE",
"487 0 LINE",
"487 700 LINE",
"301 700 LINE",
"303 356 LINE",
"221 700 LINE",
"16 700 LINE",
"16 0 LINE"
);
}
);
width = 503;
},
{
associatedMasterId = "262880E7-CFE1-4BDA-902E-E24798F3240A";
layerId = "B68339A5-228C-407B-A604-C2C0356B3DF7";
name = "{95,100}";
paths = (
{
closed = 1;
nodes = (
"143 0 LINE",
"143 463 LINE",
"350 0 LINE",
"443 0 LINE",
"443 700 LINE",
"348 700 LINE",
"348 229 LINE",
"141 700 LINE",
"47 700 LINE",
"47 0 LINE"
);
}
);
width = 490;
}
);
leftKerningGroup = H;
rightKerningGroup = H;
unicode = 004E;
},
{
color = 3;
glyphname = O;
lastChange = "2016-12-01 05:34:33 +0000";
layers = (
{
layerId = "262880E7-CFE1-4BDA-902E-E24798F3240A";
paths = (
{
closed = 1;
nodes = (
"330 -9 OFFCURVE",
"399 56 OFFCURVE",
"399 154 CURVE SMOOTH",
"399 546 LINE SMOOTH",
"399 644 OFFCURVE",
"330 709 OFFCURVE",
"226 709 CURVE SMOOTH",
"123 709 OFFCURVE",
"54 644 OFFCURVE",
"54 546 CURVE SMOOTH",
"54 154 LINE SMOOTH",
"54 56 OFFCURVE",
"123 -9 OFFCURVE",
"226 -9 CURVE SMOOTH"
);
},
{
closed = 1;
nodes = (
"136 12 OFFCURVE",
"76 68 OFFCURVE",
"76 152 CURVE SMOOTH",
"76 548 LINE SMOOTH",
"76 632 OFFCURVE",
"136 688 OFFCURVE",
"226 688 CURVE SMOOTH",
"317 688 OFFCURVE",
"377 632 OFFCURVE",
"377 548 CURVE SMOOTH",
"377 152 LINE SMOOTH",
"377 68 OFFCURVE",
"317 12 OFFCURVE",
"226 12 CURVE SMOOTH"
);
}
);
width = 453;
},
{
layerId = "4E2227F3-52E4-4048-A8EE-327B486EF0A4";
paths = (
{
closed = 1;
nodes = (
"381 -12 OFFCURVE",
"474 78 OFFCURVE",
"474 214 CURVE SMOOTH",
"474 486 LINE SMOOTH",
"474 622 OFFCURVE",
"381 712 OFFCURVE",
"243 712 CURVE SMOOTH",
"105 712 OFFCURVE",
"12 622 OFFCURVE",
"12 486 CURVE SMOOTH",
"12 214 LINE SMOOTH",
"12 78 OFFCURVE",
"105 -12 OFFCURVE",
"243 -12 CURVE SMOOTH"
);
},
{
closed = 1;
nodes = (
"217 149 OFFCURVE",
"200 174 OFFCURVE",
"200 203 CURVE SMOOTH",
"200 497 LINE SMOOTH",
"200 526 OFFCURVE",
"217 551 OFFCURVE",
"243 551 CURVE SMOOTH",
"269 551 OFFCURVE",
"286 526 OFFCURVE",
"286 497 CURVE SMOOTH",
"286 203 LINE SMOOTH",
"286 174 OFFCURVE",
"269 149 OFFCURVE",
"243 149 CURVE SMOOTH"
);
}
);
width = 486;
},
{
associatedMasterId = "262880E7-CFE1-4BDA-902E-E24798F3240A";
layerId = "C54DB89B-6500-4B9B-BC80-E29993877229";
name = "{95,100}";
paths = (
{
closed = 1;
nodes = (
"347 -10 OFFCURVE",
"427 66 OFFCURVE",
"427 180 CURVE SMOOTH",
"427 520 LINE SMOOTH",
"427 634 OFFCURVE",
"347 710 OFFCURVE",
"228 710 CURVE SMOOTH",
"110 710 OFFCURVE",
"31 634 OFFCURVE",
"31 520 CURVE SMOOTH",
"31 180 LINE SMOOTH",
"31 66 OFFCURVE",
"110 -10 OFFCURVE",
"228 -10 CURVE SMOOTH"
);
},
{
closed = 1;
nodes = (
"166 80 OFFCURVE",
"125 122 OFFCURVE",
"125 182 CURVE SMOOTH",
"125 518 LINE SMOOTH",
"125 578 OFFCURVE",
"166 620 OFFCURVE",
"228 620 CURVE SMOOTH",
"291 620 OFFCURVE",
"332 578 OFFCURVE",
"332 518 CURVE SMOOTH",
"332 182 LINE SMOOTH",
"332 122 OFFCURVE",
"291 80 OFFCURVE",
"228 80 CURVE SMOOTH"
);
}
);
width = 457;
}
);
leftKerningGroup = C;
rightKerningGroup = O;
unicode = 004F;
},
{
glyphname = P;
lastChange = "2016-12-01 07:11:40 +0000";
layers = (
{
layerId = "262880E7-CFE1-4BDA-902E-E24798F3240A";
paths = (
{
closed = 1;
nodes = (
"95 0 LINE",
"95 680 LINE",
"262 680 LINE SMOOTH",
"342 680 OFFCURVE",
"395 616 OFFCURVE",
"395 520 CURVE SMOOTH",
"395 424 OFFCURVE",
"342 360 OFFCURVE",
"262 360 CURVE SMOOTH",
"90 360 LINE",
"90 340 LINE",
"260 340 LINE SMOOTH",
"354 340 OFFCURVE",
"416 411 OFFCURVE",
"416 520 CURVE SMOOTH",
"416 629 OFFCURVE",
"354 702 OFFCURVE",
"260 702 CURVE SMOOTH",
"72 702 LINE",
"72 0 LINE"
);
}
);
width = 470;
},
{
layerId = "4E2227F3-52E4-4048-A8EE-327B486EF0A4";
paths = (
{
closed = 1;
nodes = (
"204 0 LINE",
"204 530 LINE",
"230 530 LINE SMOOTH",
"257 530 OFFCURVE",
"277 508 OFFCURVE",
"277 476 CURVE SMOOTH",
"277 438 OFFCURVE",
"257 412 OFFCURVE",
"230 412 CURVE SMOOTH",
"188 412 LINE",
"188 247 LINE",
"262 247 LINE SMOOTH",
"384 247 OFFCURVE",
"465 339 OFFCURVE",
"465 476 CURVE SMOOTH",
"465 610 OFFCURVE",
"380 700 OFFCURVE",
"252 700 CURVE SMOOTH",
"16 700 LINE",
"16 0 LINE"
);
}
);
width = 477;
}
);
leftKerningGroup = H;
unicode = 0050;
},
{
color = 3;
glyphname = Q;
lastChange = "2016-12-02 03:45:38 +0000";
layers = (
{
layerId = "262880E7-CFE1-4BDA-902E-E24798F3240A";
paths = (
{
closed = 1;
nodes = (
"229 -116 LINE",
"229 96 LINE",
"210 96 LINE",
"210 -116 LINE"
);
},
{
closed = 1;
nodes = (
"133 12 OFFCURVE",
"76 68 OFFCURVE",
"76 152 CURVE SMOOTH",
"76 548 LINE SMOOTH",
"76 632 OFFCURVE",
"133 688 OFFCURVE",
"219 688 CURVE SMOOTH",
"305 688 OFFCURVE",
"362 632 OFFCURVE",
"362 548 CURVE SMOOTH",
"362 152 LINE SMOOTH",
"362 68 OFFCURVE",
"305 12 OFFCURVE",
"219 12 CURVE SMOOTH"
);
},
{
closed = 1;
nodes = (
"318 -9 OFFCURVE",
"384 56 OFFCURVE",
"384 154 CURVE SMOOTH",
"384 546 LINE SMOOTH",
"384 644 OFFCURVE",
"318 709 OFFCURVE",
"219 709 CURVE SMOOTH",
"120 709 OFFCURVE",
"54 644 OFFCURVE",
"54 546 CURVE SMOOTH",
"54 154 LINE SMOOTH",
"54 56 OFFCURVE",
"120 -9 OFFCURVE",
"219 -9 CURVE SMOOTH"
);
}
);
width = 453;
},
{
layerId = "4E2227F3-52E4-4048-A8EE-327B486EF0A4";
paths = (
{
closed = 1;
nodes = (
"326 -103 LINE",
"314 3 LINE",
"167 3 LINE",
"155 -103 LINE"
);
},
{
closed = 1;
nodes = (
"216 162 OFFCURVE",
"200 182 OFFCURVE",
"200 213 CURVE SMOOTH",
"200 487 LINE SMOOTH",
"200 518 OFFCURVE",
"216 538 OFFCURVE",
"240 538 CURVE SMOOTH",
"265 538 OFFCURVE",
"280 518 OFFCURVE",
"280 487 CURVE SMOOTH",
"280 213 LINE SMOOTH",
"280 182 OFFCURVE",
"265 162 OFFCURVE",
"240 162 CURVE SMOOTH"
);
},
{
closed = 1;
nodes = (
"378 -8 OFFCURVE",
"468 81 OFFCURVE",
"468 215 CURVE SMOOTH",
"468 485 LINE SMOOTH",
"468 619 OFFCURVE",
"378 708 OFFCURVE",
"240 708 CURVE SMOOTH",
"103 708 OFFCURVE",
"12 619 OFFCURVE",
"12 485 CURVE SMOOTH",
"12 215 LINE SMOOTH",
"12 81 OFFCURVE",
"103 -8 OFFCURVE",
"240 -8 CURVE SMOOTH"
);
}
);
width = 486;
},
{
associatedMasterId = "262880E7-CFE1-4BDA-902E-E24798F3240A";
layerId = "506A4DB3-9CD6-44CD-BCA8-2AE710F44E44";
name = "{95,100}";
paths = (
{
closed = 1;
nodes = (
"272 -90 LINE",
"261 194 LINE",
"186 194 LINE",
"176 -90 LINE"
);
},
{
closed = 1;
nodes = (
"165 81 OFFCURVE",
"125 122 OFFCURVE",
"125 183 CURVE SMOOTH",
"125 517 LINE SMOOTH",
"125 578 OFFCURVE",
"165 619 OFFCURVE",
"223 619 CURVE SMOOTH",
"283 619 OFFCURVE",
"322 578 OFFCURVE",
"322 517 CURVE SMOOTH",
"322 183 LINE SMOOTH",
"322 122 OFFCURVE",
"283 81 OFFCURVE",
"223 81 CURVE SMOOTH"
);
},
{
closed = 1;
nodes = (
"339 -9 OFFCURVE",
"416 67 OFFCURVE",
"416 181 CURVE SMOOTH",
"416 519 LINE SMOOTH",
"416 633 OFFCURVE",
"339 709 OFFCURVE",
"223 709 CURVE SMOOTH",
"108 709 OFFCURVE",
"31 633 OFFCURVE",
"31 519 CURVE SMOOTH",
"31 181 LINE SMOOTH",
"31 67 OFFCURVE",
"108 -9 OFFCURVE",
"223 -9 CURVE SMOOTH"
);
}
);
width = 458;
}
);
leftKerningGroup = C;
unicode = 0051;
},
{
color = 3;
glyphname = R;
lastChange = "2016-12-01 07:11:57 +0000";
layers = (
{
layerId = "262880E7-CFE1-4BDA-902E-E24798F3240A";
paths = (
{
closed = 1;
nodes = (
"95 0 LINE",
"95 680 LINE",
"266 680 LINE SMOOTH",
"345 680 OFFCURVE",
"398 616 OFFCURVE",
"398 520 CURVE SMOOTH",
"398 424 OFFCURVE",
"345 360 OFFCURVE",
"266 360 CURVE SMOOTH",
"90 360 LINE",
"90 340 LINE",
"264 340 LINE SMOOTH",
"358 340 OFFCURVE",
"420 411 OFFCURVE",
"420 520 CURVE SMOOTH",
"420 629 OFFCURVE",
"358 702 OFFCURVE",
"264 702 CURVE SMOOTH",
"72 702 LINE",
"72 0 LINE"
);
},
{
closed = 1;
nodes = (
"428 0 LINE",
"304 349 LINE",
"286 341 LINE",
"406 0 LINE"
);
}
);
width = 482;
},
{
layerId = "4E2227F3-52E4-4048-A8EE-327B486EF0A4";
paths = (
{
closed = 1;
nodes = (
"204 0 LINE",
"204 530 LINE",
"241 530 LINE SMOOTH",
"270 530 OFFCURVE",
"289 506 OFFCURVE",
"289 469 CURVE SMOOTH",
"289 432 OFFCURVE",
"270 407 OFFCURVE",
"241 407 CURVE SMOOTH",
"188 407 LINE",
"188 244 LINE",
"275 244 LINE SMOOTH",
"396 244 OFFCURVE",
"477 336 OFFCURVE",
"477 474 CURVE SMOOTH",
"477 610 OFFCURVE",
"392 700 OFFCURVE",
"265 700 CURVE SMOOTH",
"16 700 LINE",
"16 0 LINE"
);
},
{
closed = 1;
nodes = (
"500 0 LINE",
"388 335 LINE",
"210 335 LINE",
"306 0 LINE"
);
}
);
width = 512;
},
{
associatedMasterId = "262880E7-CFE1-4BDA-902E-E24798F3240A";
layerId = "BE946EE3-8AE1-439A-A927-2CED285D2AD4";
name = "{95,100}";
paths = (
{
closed = 1;
nodes = (
"138 0 LINE",
"138 611 LINE",
"251 611 LINE SMOOTH",
"308 611 OFFCURVE",
"346 566 OFFCURVE",
"346 498 CURVE SMOOTH",
"346 428 OFFCURVE",
"308 381 OFFCURVE",
"251 381 CURVE SMOOTH",
"128 381 LINE",
"128 292 LINE",
"264 292 LINE SMOOTH",
"370 292 OFFCURVE",
"441 375 OFFCURVE",
"441 500 CURVE SMOOTH",
"441 621 OFFCURVE",
"368 701 OFFCURVE",
"260 701 CURVE SMOOTH",
"43 701 LINE",
"43 0 LINE"
);
},
{
closed = 1;
nodes = (
"455 0 LINE",
"337 343 LINE",
"249 338 LINE",
"358 0 LINE"
);
}
);
width = 478;
}
);
rightKerningGroup = R;
unicode = 0052;
},
{
color = 3;
glyphname = S;
lastChange = "2016-12-01 05:29:17 +0000";
layers = (
{
layerId = "262880E7-CFE1-4BDA-902E-E24798F3240A";
paths = (
{
closed = 1;
nodes = (
"328 -9 OFFCURVE",
"393 49 OFFCURVE",
"393 149 CURVE SMOOTH",
"393 254 OFFCURVE",
"308 307 OFFCURVE",
"225 359 CURVE SMOOTH",
"146 409 OFFCURVE",
"67 457 OFFCURVE",
"67 550 CURVE SMOOTH",
"67 637 OFFCURVE",
"122 688 OFFCURVE",
"216 688 CURVE SMOOTH",
"310 688 OFFCURVE",
"365 636 OFFCURVE",
"365 548 CURVE SMOOTH",
"365 500 LINE",
"387 500 LINE",
"387 549 LINE SMOOTH",
"387 650 OFFCURVE",
"324 709 OFFCURVE",
"216 709 CURVE SMOOTH",
"108 709 OFFCURVE",
"45 651 OFFCURVE",
"45 552 CURVE SMOOTH",
"45 448 OFFCURVE",
"130 395 OFFCURVE",
"211 343 CURVE SMOOTH",
"290 292 OFFCURVE",
"371 243 OFFCURVE",
"371 149 CURVE SMOOTH",
"371 63 OFFCURVE",
"314 12 OFFCURVE",
"217 12 CURVE SMOOTH",
"122 12 OFFCURVE",
"67 63 OFFCURVE",
"67 151 CURVE SMOOTH",
"67 210 LINE",
"47 210 LINE",
"47 150 LINE SMOOTH",
"47 50 OFFCURVE",
"110 -9 OFFCURVE",
"218 -9 CURVE SMOOTH"
);
}
);
width = 438;
},
{
layerId = "4E2227F3-52E4-4048-A8EE-327B486EF0A4";
paths = (
{
closed = 1;
nodes = (
"351 -8 OFFCURVE",
"437 70 OFFCURVE",
"437 187 CURVE SMOOTH",
"437 287 OFFCURVE",
"376 338 OFFCURVE",
"274 412 CURVE SMOOTH",
"211 458 OFFCURVE",
"195 470 OFFCURVE",
"195 500 CURVE SMOOTH",
"195 524 OFFCURVE",
"205 538 OFFCURVE",
"221 538 CURVE SMOOTH",
"237 538 OFFCURVE",
"248 524 OFFCURVE",
"248 504 CURVE SMOOTH",
"248 490 LINE",
"433 490 LINE",
"433 509 LINE SMOOTH",
"433 628 OFFCURVE",
"349 708 OFFCURVE",
"222 708 CURVE SMOOTH",
"94 708 OFFCURVE",
"10 628 OFFCURVE",
"10 510 CURVE SMOOTH",
"10 387 OFFCURVE",
"100 322 OFFCURVE",
"172 272 CURVE SMOOTH",
"241 224 OFFCURVE",
"252 215 OFFCURVE",
"252 194 CURVE SMOOTH",
"252 175 OFFCURVE",
"241 162 OFFCURVE",
"227 162 CURVE SMOOTH",
"211 162 OFFCURVE",
"200 176 OFFCURVE",
"200 198 CURVE SMOOTH",
"200 211 LINE",
"15 211 LINE",
"15 180 LINE SMOOTH",
"15 70 OFFCURVE",
"97 -8 OFFCURVE",
"225 -8 CURVE SMOOTH"
);
}
);
width = 447;
},
{
associatedMasterId = "262880E7-CFE1-4BDA-902E-E24798F3240A";
layerId = "27CF7A20-12ED-41D4-A25C-14FEEBE4A60B";
name = "{95,100}";
paths = (
{
closed = 1;
nodes = (
"343 -9 OFFCURVE",
"418 58 OFFCURVE",
"418 166 CURVE SMOOTH",
"418 268 OFFCURVE",
"343 321 OFFCURVE",
"252 382 CURVE SMOOTH",
"180 431 OFFCURVE",
"129 463 OFFCURVE",
"129 528 CURVE SMOOTH",
"129 584 OFFCURVE",
"165 619 OFFCURVE",
"224 619 CURVE SMOOTH",
"284 619 OFFCURVE",
"319 583 OFFCURVE",
"319 525 CURVE SMOOTH",
"319 496 LINE",
"412 496 LINE",
"412 532 LINE SMOOTH",
"412 640 OFFCURVE",
"341 709 OFFCURVE",
"224 709 CURVE SMOOTH",
"108 709 OFFCURVE",
"36 641 OFFCURVE",
"36 534 CURVE SMOOTH",
"36 421 OFFCURVE",
"123 363 OFFCURVE",
"199 312 CURVE SMOOTH",
"274 262 OFFCURVE",
"324 231 OFFCURVE",
"324 169 CURVE SMOOTH",
"324 116 OFFCURVE",
"288 81 OFFCURVE",
"227 81 CURVE SMOOTH",
"167 81 OFFCURVE",
"131 116 OFFCURVE",
"131 176 CURVE SMOOTH",
"131 210 LINE",
"39 210 LINE",
"39 163 LINE SMOOTH",
"39 59 OFFCURVE",
"111 -9 OFFCURVE",
"227 -9 CURVE SMOOTH"
);
}
);
width = 453;
}
);
leftKerningGroup = S;
rightKerningGroup = S;
unicode = 0053;
},
{
glyphname = T;
lastChange = "2016-12-01 07:02:39 +0000";
layers = (
{
layerId = "262880E7-CFE1-4BDA-902E-E24798F3240A";
paths = (
{
closed = 1;
nodes = (
"222 0 LINE",
"222 689 LINE",
"200 689 LINE",
"200 0 LINE"
);
},
{
closed = 1;
nodes = (
"395 679 LINE",
"395 700 LINE",
"36 700 LINE",
"36 679 LINE"
);
}
);
width = 413;
},
{
layerId = "4E2227F3-52E4-4048-A8EE-327B486EF0A4";
paths = (
{
closed = 1;
nodes = (
"326 0 LINE",
"326 689 LINE",
"138 689 LINE",
"138 0 LINE"
);
},
{
closed = 1;
nodes = (
"459 530 LINE",
"459 700 LINE",
"8 700 LINE",
"8 530 LINE"
);
}
);
width = 463;
},
{
associatedMasterId = "262880E7-CFE1-4BDA-902E-E24798F3240A";
layerId = "B94D5C64-F458-403F-8B9E-4B02C0AC7203";
name = "{95,100}";
paths = (
{
closed = 1;
nodes = (
"265 0 LINE",
"265 689 LINE",
"170 689 LINE",
"170 0 LINE"
);
},
{
closed = 1;
nodes = (
"420 610 LINE",
"420 700 LINE",
"21 700 LINE",
"21 610 LINE"
);
}
);
width = 431;
}
);
leftKerningGroup = T;
rightKerningGroup = T;
unicode = 0054;
},
{
glyphname = U;
lastChange = "2016-12-01 05:29:17 +0000";
layers = (
{
layerId = "262880E7-CFE1-4BDA-902E-E24798F3240A";
paths = (
{
closed = 1;
nodes = (
"340 -9 OFFCURVE",
"410 59 OFFCURVE",
"410 160 CURVE SMOOTH",
"410 700 LINE",
"389 700 LINE",
"389 156 LINE SMOOTH",
"389 70 OFFCURVE",
"327 12 OFFCURVE",
"236 12 CURVE SMOOTH",
"146 12 OFFCURVE",
"85 70 OFFCURVE",
"85 156 CURVE SMOOTH",
"85 700 LINE",
"63 700 LINE",
"63 160 LINE SMOOTH",
"63 59 OFFCURVE",
"133 -9 OFFCURVE",
"236 -9 CURVE SMOOTH"
);
}
);
width = 473;
},
{
layerId = "4E2227F3-52E4-4048-A8EE-327B486EF0A4";
paths = (
{
closed = 1;
nodes = (
"369 -8 OFFCURVE",
"458 77 OFFCURVE",
"458 208 CURVE SMOOTH",
"458 700 LINE",
"270 700 LINE",
"270 208 LINE SMOOTH",
"270 180 OFFCURVE",
"256 162 OFFCURVE",
"236 162 CURVE SMOOTH",
"216 162 OFFCURVE",
"202 180 OFFCURVE",
"202 208 CURVE SMOOTH",
"202 700 LINE",
"14 700 LINE",
"14 208 LINE SMOOTH",
"14 77 OFFCURVE",
"103 -8 OFFCURVE",
"236 -8 CURVE SMOOTH"
);
}
);
width = 472;
},
{
associatedMasterId = "262880E7-CFE1-4BDA-902E-E24798F3240A";
layerId = "A0AE8F4B-DC00-47F8-9374-9C55383FCF6B";
name = "{95,100}";
paths = (
{
closed = 1;
nodes = (
"347 -9 OFFCURVE",
"425 67 OFFCURVE",
"425 181 CURVE SMOOTH",
"425 700 LINE",
"331 700 LINE",
"331 183 LINE SMOOTH",
"331 122 OFFCURVE",
"290 81 OFFCURVE",
"230 81 CURVE SMOOTH",
"171 81 OFFCURVE",
"130 122 OFFCURVE",
"130 183 CURVE SMOOTH",
"130 700 LINE",
"36 700 LINE",
"36 181 LINE SMOOTH",
"36 67 OFFCURVE",
"114 -9 OFFCURVE",
"230 -9 CURVE SMOOTH"
);
}
);
width = 461;
}
);
rightKerningGroup = U;
unicode = 0055;
},
{
glyphname = V;
lastChange = "2016-12-01 05:29:17 +0000";
layers = (
{
layerId = "262880E7-CFE1-4BDA-902E-E24798F3240A";
paths = (
{
closed = 1;
nodes = (
"240 0 LINE",
"431 700 LINE",
"408 700 LINE",
"229 42 LINE",
"49 700 LINE",
"27 700 LINE",
"218 0 LINE"
);
}
);
width = 458;
},
{
layerId = "4E2227F3-52E4-4048-A8EE-327B486EF0A4";
paths = (
{
closed = 1;
nodes = (
"361 0 LINE",
"514 700 LINE",
"316 700 LINE",
"265 305 LINE",
"209 700 LINE",
"6 700 LINE",
"158 0 LINE"
);
}
);
width = 520;
}
);
leftKerningGroup = V;
rightKerningGroup = V;
unicode = 0056;
},
{
color = 3;
glyphname = W;
lastChange = "2016-12-01 08:27:22 +0000";
layers = (
{
layerId = "262880E7-CFE1-4BDA-902E-E24798F3240A";
paths = (
{
closed = 1;
nodes = (
"196 0 LINE",
"337 657 LINE",
"474 0 LINE",
"495 0 LINE",
"645 700 LINE",
"623 700 LINE",
"486 40 LINE",
"345 700 LINE",
"327 700 LINE",
"186 40 LINE",
"49 700 LINE",
"27 700 LINE",
"174 0 LINE"
);
}
);
width = 672;
},
{
layerId = "4E2227F3-52E4-4048-A8EE-327B486EF0A4";
paths = (
{
closed = 1;
nodes = (
"311 0 LINE",
"348 362 LINE",
"394 0 LINE",
"558 0 LINE",
"690 700 LINE",
"497 700 LINE",
"477 352 LINE",
"428 700 LINE",
"263 700 LINE",
"229 352 LINE",
"204 700 LINE",
"6 700 LINE",
"146 0 LINE"
);
}
);
width = 696;
},
{
associatedMasterId = "262880E7-CFE1-4BDA-902E-E24798F3240A";
layerId = "130BD5C2-5A44-42B2-A8B6-C9B87CBC8DB3";
name = "{95,100}";
paths = (
{
closed = 1;
nodes = (
"241 0 LINE",
"337 528 LINE",
"434 0 LINE",
"517 0 LINE",
"660 700 LINE",
"563 700 LINE",
"477 177 LINE",
"377 700 LINE",
"294 700 LINE",
"200 177 LINE",
"112 700 LINE",
"13 700 LINE",
"157 0 LINE"
);
}
);
width = 672;
}
);
leftKerningGroup = V;
rightKerningGroup = V;
unicode = 0057;
},
{
glyphname = X;
lastChange = "2016-12-01 05:29:17 +0000";
layers = (
{
layerId = "262880E7-CFE1-4BDA-902E-E24798F3240A";
paths = (
{
closed = 1;
nodes = (
"52 0 LINE",
"217 330 LINE",
"383 0 LINE",
"408 0 LINE",
"228 349 LINE",
"408 700 LINE",
"383 700 LINE",
"217 369 LINE",
"52 700 LINE",
"27 700 LINE",
"206 350 LINE",
"27 0 LINE"
);
}
);
width = 435;
},
{
layerId = "4E2227F3-52E4-4048-A8EE-327B486EF0A4";
paths = (
{
closed = 1;
nodes = (
"197 0 LINE",
"244 162 LINE",
"290 0 LINE",
"481 0 LINE",
"343 350 LINE",
"481 700 LINE",
"289 700 LINE",
"244 537 LINE",
"198 700 LINE",
"6 700 LINE",
"144 350 LINE",
"6 0 LINE"
);
}
);
width = 487;
}
);
rightKerningGroup = X;
unicode = 0058;
},
{
glyphname = Y;
lastChange = "2016-12-01 05:29:17 +0000";
layers = (
{
layerId = "262880E7-CFE1-4BDA-902E-E24798F3240A";
paths = (
{
closed = 1;
nodes = (
"225 0 LINE",
"225 339 LINE",
"400 700 LINE",
"378 700 LINE",
"214 358 LINE",
"49 700 LINE",
"27 700 LINE",
"203 339 LINE",
"203 0 LINE"
);
}
);
width = 427;
},
{
layerId = "4E2227F3-52E4-4048-A8EE-327B486EF0A4";
paths = (
{
closed = 1;
nodes = (
"337 2 LINE",
"337 251 LINE",
"481 700 LINE",
"283 700 LINE",
"244 452 LINE",
"204 700 LINE",
"6 700 LINE",
"149 251 LINE",
"149 2 LINE"
);
}
);
width = 487;
}
);
leftKerningGroup = Y;
unicode = 0059;
},
{
glyphname = Z;
lastChange = "2016-12-01 07:10:33 +0000";
layers = (
{
layerId = "262880E7-CFE1-4BDA-902E-E24798F3240A";
paths = (
{
closed = 1;
nodes = (
"367 0 LINE",
"367 21 LINE",
"61 21 LINE",
"367 679 LINE",
"367 700 LINE",
"36 700 LINE",
"36 679 LINE",
"343 679 LINE",
"36 21 LINE",
"36 0 LINE"
);
}
);
width = 403;
},
{
layerId = "4E2227F3-52E4-4048-A8EE-327B486EF0A4";
paths = (
{
closed = 1;
nodes = (
"400 0 LINE",
"400 170 LINE",
"202 170 LINE",
"400 530 LINE",
"400 700 LINE",
"6 700 LINE",
"6 530 LINE",
"202 530 LINE",
"6 170 LINE",
"6 0 LINE"
);
}
);
width = 408;
},
{
associatedMasterId = "4E2227F3-52E4-4048-A8EE-327B486EF0A4";
layerId = "5CD2C5E0-AC7E-4161-8717-5DEBA2516481";
name = "{95,100}";
paths = (
{
closed = 1;
nodes = (
"374 0 LINE",
"374 90 LINE",
"115 90 LINE",
"374 610 LINE",
"374 700 LINE",
"16 700 LINE",
"16 610 LINE",
"274 610 LINE",
"16 90 LINE",
"16 0 LINE"
);
}
);
width = 395;
}
);
leftKerningGroup = Z;
rightKerningGroup = Z;
unicode = 005A;
},
{
color = 3;
glyphname = a;
lastChange = "2016-12-02 03:56:02 +0000";
layers = (
{
layerId = "262880E7-CFE1-4BDA-902E-E24798F3240A";
paths = (
{
closed = 1;
nodes = (
"363 0 LINE",
"363 342 LINE SMOOTH",
"363 447 OFFCURVE",
"316 508 OFFCURVE",
"220 508 CURVE SMOOTH",
"127 508 OFFCURVE",
"63 450 OFFCURVE",
"63 352 CURVE SMOOTH",
"63 351 LINE",
"85 351 LINE",
"85 355 LINE SMOOTH",
"85 438 OFFCURVE",
"141 487 OFFCURVE",
"220 487 CURVE SMOOTH",
"302 487 OFFCURVE",
"341 434 OFFCURVE",
"341 345 CURVE SMOOTH",
"341 0 LINE"
);
},
{
closed = 1;
nodes = (
"271 -8 OFFCURVE",
"357 37 OFFCURVE",
"357 142 CURVE",
"357 277 LINE",
"232 277 LINE",
"128 277 OFFCURVE",
"45 238 OFFCURVE",
"45 127 CURVE SMOOTH",
"45 27 OFFCURVE",
"113 -8 OFFCURVE",
"187 -8 CURVE SMOOTH"
);
},
{
closed = 1;
nodes = (
"125 14 OFFCURVE",
"67 44 OFFCURVE",
"67 126 CURVE SMOOTH",
"67 218 OFFCURVE",
"139 256 OFFCURVE",
"232 256 CURVE",
"341 256 LINE",
"341 142 LINE SMOOTH",
"341 52 OFFCURVE",
"260 12 OFFCURVE",
"188 13 CURVE SMOOTH"
);
}
);
width = 444;
},
{
layerId = "4E2227F3-52E4-4048-A8EE-327B486EF0A4";
paths = (
{
closed = 1;
nodes = (
"449 0 LINE",
"449 360 LINE SMOOTH",
"449 461 OFFCURVE",
"362 528 OFFCURVE",
"232 528 CURVE SMOOTH",
"105 528 OFFCURVE",
"18 465 OFFCURVE",
"18 370 CURVE SMOOTH",
"18 339 LINE",
"206 332 LINE",
"206 337 LINE SMOOTH",
"206 355 OFFCURVE",
"217 367 OFFCURVE",
"232 367 CURVE SMOOTH",
"249 367 OFFCURVE",
"261 355 OFFCURVE",
"261 337 CURVE SMOOTH",
"261 0 LINE"
);
},
{
closed = 1;
nodes = (
"250 -7 OFFCURVE",
"350 89 OFFCURVE",
"350 197 CURVE",
"350 313 LINE",
"221 313 LINE",
"95 313 OFFCURVE",
"12 297 OFFCURVE",
"12 151 CURVE SMOOTH",
"12 9 OFFCURVE",
"86 -9 OFFCURVE",
"155 -8 CURVE SMOOTH"
);
},
{
closed = 1;
nodes = (
"216 125 OFFCURVE",
"204 134 OFFCURVE",
"204 153 CURVE SMOOTH",
"204 170 OFFCURVE",
"216 185 OFFCURVE",
"235 185 CURVE",
"261 185 LINE",
"261 152 LINE SMOOTH",
"261 135 OFFCURVE",
"243 125 OFFCURVE",
"229 125 CURVE SMOOTH"
);
}
);
width = 467;
},
{
associatedMasterId = "262880E7-CFE1-4BDA-902E-E24798F3240A";
layerId = "C1D225D7-6ABC-447B-B6D3-D45828173093";
name = "{95,100}";
paths = (
{
closed = 1;
nodes = (
"408 0 LINE",
"408 350 LINE SMOOTH",
"408 453 OFFCURVE",
"342 517 OFFCURVE",
"236 517 CURVE SMOOTH",
"134 517 OFFCURVE",
"58 457 OFFCURVE",
"58 360 CURVE SMOOTH",
"58 338 LINE",
"153 335 LINE",
"153 339 LINE SMOOTH",
"153 394 OFFCURVE",
"191 427 OFFCURVE",
"237 427 CURVE SMOOTH",
"285 427 OFFCURVE",
"313 392 OFFCURVE",
"313 334 CURVE SMOOTH",
"313 0 LINE"
);
},
{
closed = 1;
nodes = (
"279 -8 OFFCURVE",
"361 62 OFFCURVE",
"361 168 CURVE",
"361 293 LINE",
"234 293 LINE",
"123 293 OFFCURVE",
"38 264 OFFCURVE",
"38 140 CURVE SMOOTH",
"38 19 OFFCURVE",
"118 -8 OFFCURVE",
"180 -8 CURVE SMOOTH"
);
},
{
closed = 1;
nodes = (
"171 78 OFFCURVE",
"130 91 OFFCURVE",
"130 141 CURVE SMOOTH",
"130 191 OFFCURVE",
"172 219 OFFCURVE",
"236 219 CURVE",
"313 219 LINE",
"313 150 LINE SMOOTH",
"313 122 OFFCURVE",
"273 78 OFFCURVE",
"207 78 CURVE SMOOTH"
);
}
);
width = 456;
}
);
leftKerningGroup = a;
rightKerningGroup = b;
unicode = 0061;
},
{
glyphname = b;
lastChange = "2016-12-01 05:32:35 +0000";
layers = (
{
components = (
{
name = b.bowl;
transform = "{1, 0, 0, 1, 85, 0}";
}
);
layerId = "262880E7-CFE1-4BDA-902E-E24798F3240A";
paths = (
{
closed = 1;
nodes = (
"103 0 LINE",
"103 700 LINE",
"81 700 LINE",
"81 0 LINE"
);
}
);
width = 464;
},
{
components = (
{
name = b.bowl;
transform = "{1, 0, 0, 1, 170, 0}";
}
);
layerId = "4E2227F3-52E4-4048-A8EE-327B486EF0A4";
paths = (
{
closed = 1;
nodes = (
"206 0 LINE",
"206 700 LINE",
"18 700 LINE",
"18 0 LINE"
);
}
);
width = 451;
}
);
leftKerningGroup = b;
rightKerningGroup = n;
unicode = 0062;
},
{
color = 3;
glyphname = c;
lastChange = "2016-12-01 05:29:18 +0000";
layers = (
{
layerId = "262880E7-CFE1-4BDA-902E-E24798F3240A";
paths = (
{
closed = 1;
nodes = (
"317 -8 OFFCURVE",
"380 58 OFFCURVE",
"380 138 CURVE SMOOTH",
"380 139 LINE",
"358 139 LINE",
"358 135 LINE SMOOTH",
"358 70 OFFCURVE",
"303 13 OFFCURVE",
"222 13 CURVE SMOOTH",
"140 13 OFFCURVE",
"85 70 OFFCURVE",
"85 155 CURVE SMOOTH",
"85 345 LINE SMOOTH",
"85 430 OFFCURVE",
"140 487 OFFCURVE",
"222 487 CURVE SMOOTH",
"303 487 OFFCURVE",
"358 430 OFFCURVE",
"358 365 CURVE SMOOTH",
"358 361 LINE",
"380 361 LINE",
"380 362 LINE SMOOTH",
"380 442 OFFCURVE",
"317 508 OFFCURVE",
"222 508 CURVE SMOOTH",
"126 508 OFFCURVE",
"63 442 OFFCURVE",
"63 342 CURVE SMOOTH",
"63 158 LINE SMOOTH",
"63 58 OFFCURVE",
"126 -8 OFFCURVE",
"222 -8 CURVE SMOOTH"
);
}
);
width = 434;
},
{
layerId = "4E2227F3-52E4-4048-A8EE-327B486EF0A4";
paths = (
{
closed = 1;
nodes = (
"354 -7 OFFCURVE",
"439 59 OFFCURVE",
"439 172 CURVE SMOOTH",
"439 212 LINE",
"251 216 LINE",
"251 185 LINE SMOOTH",
"251 166 OFFCURVE",
"241 153 OFFCURVE",
"227 153 CURVE SMOOTH",
"212 153 OFFCURVE",
"202 166 OFFCURVE",
"202 185 CURVE SMOOTH",
"202 335 LINE SMOOTH",
"202 354 OFFCURVE",
"212 367 OFFCURVE",
"227 367 CURVE SMOOTH",
"241 367 OFFCURVE",
"251 354 OFFCURVE",
"251 335 CURVE SMOOTH",
"251 304 LINE",
"439 307 LINE",
"439 348 LINE SMOOTH",
"439 462 OFFCURVE",
"354 528 OFFCURVE",
"227 528 CURVE SMOOTH",
"99 528 OFFCURVE",
"14 462 OFFCURVE",
"14 348 CURVE SMOOTH",
"14 172 LINE SMOOTH",
"14 59 OFFCURVE",
"99 -7 OFFCURVE",
"227 -7 CURVE SMOOTH"
);
}
);
width = 451;
},
{
associatedMasterId = "262880E7-CFE1-4BDA-902E-E24798F3240A";
layerId = "ACF168AC-FE90-447F-BF07-96C78B49E18D";
name = "{95,100}";
paths = (
{
closed = 1;
nodes = (
"328 -8 OFFCURVE",
"400 58 OFFCURVE",
"400 153 CURVE SMOOTH",
"400 173 LINE",
"306 173 LINE",
"306 165 LINE SMOOTH",
"306 120 OFFCURVE",
"271 82 OFFCURVE",
"219 82 CURVE SMOOTH",
"166 82 OFFCURVE",
"131 120 OFFCURVE",
"131 176 CURVE SMOOTH",
"131 333 LINE SMOOTH",
"131 389 OFFCURVE",
"166 427 OFFCURVE",
"219 427 CURVE SMOOTH",
"271 427 OFFCURVE",
"306 389 OFFCURVE",
"306 344 CURVE SMOOTH",
"306 336 LINE",
"400 336 LINE",
"400 356 LINE SMOOTH",
"400 451 OFFCURVE",
"328 517 OFFCURVE",
"219 517 CURVE SMOOTH",
"109 517 OFFCURVE",
"36 451 OFFCURVE",
"36 345 CURVE SMOOTH",
"36 164 LINE SMOOTH",
"36 58 OFFCURVE",
"109 -8 OFFCURVE",
"219 -8 CURVE SMOOTH"
);
}
);
width = 431;
}
);
leftKerningGroup = o;
rightKerningGroup = c;
unicode = 0063;
},
{
color = 3;
glyphname = e;
lastChange = "2016-12-01 05:33:29 +0000";
layers = (
{
layerId = "262880E7-CFE1-4BDA-902E-E24798F3240A";
paths = (
{
closed = 1;
nodes = (
"356 108 LINE",
"341 50 OFFCURVE",
"291 13 OFFCURVE",
"223 13 CURVE SMOOTH",
"140 13 OFFCURVE",
"85 70 OFFCURVE",
"85 155 CURVE SMOOTH",
"85 345 LINE SMOOTH",
"85 430 OFFCURVE",
"140 487 OFFCURVE",
"222 487 CURVE SMOOTH",
"305 487 OFFCURVE",
"360 430 OFFCURVE",
"360 345 CURVE SMOOTH",
"360 267 LINE",
"75 267 LINE",
"75 246 LINE",
"382 246 LINE",
"382 342 LINE SMOOTH",
"382 442 OFFCURVE",
"319 508 OFFCURVE",
"222 508 CURVE SMOOTH",
"126 508 OFFCURVE",
"63 442 OFFCURVE",
"63 342 CURVE SMOOTH",
"63 158 LINE SMOOTH",
"63 58 OFFCURVE",
"126 -8 OFFCURVE",
"223 -8 CURVE SMOOTH",
"305 -8 OFFCURVE",
"363 37 OFFCURVE",
"378 108 CURVE"
);
}
);
width = 445;
},
{
layerId = "4E2227F3-52E4-4048-A8EE-327B486EF0A4";
paths = (
{
closed = 1;
nodes = (
"251 183 LINE",
"250 163 OFFCURVE",
"242 153 OFFCURVE",
"226 153 CURVE SMOOTH",
"212 153 OFFCURVE",
"202 166 OFFCURVE",
"202 185 CURVE SMOOTH",
"202 335 LINE SMOOTH",
"202 354 OFFCURVE",
"212 367 OFFCURVE",
"227 367 CURVE SMOOTH",
"241 367 OFFCURVE",
"251 354 OFFCURVE",
"251 335 CURVE SMOOTH",
"251 313 LINE",
"130 313 LINE",
"130 208 LINE",
"439 208 LINE",
"439 348 LINE SMOOTH",
"439 456 OFFCURVE",
"354 528 OFFCURVE",
"227 528 CURVE SMOOTH",
"99 528 OFFCURVE",
"14 456 OFFCURVE",
"14 348 CURVE SMOOTH",
"14 172 LINE SMOOTH",
"14 65 OFFCURVE",
"99 -7 OFFCURVE",
"226 -7 CURVE SMOOTH",
"355 -7 OFFCURVE",
"440 67 OFFCURVE",
"439 179 CURVE"
);
}
);
width = 453;
},
{
associatedMasterId = "4E2227F3-52E4-4048-A8EE-327B486EF0A4";
layerId = "9373DB5F-FDE9-4915-B1CD-D897B1E08320";
name = "Nov 21 16, 16:41";
paths = (
{
closed = 1;
nodes = (
"366 -7 OFFCURVE",
"454 59 OFFCURVE",
"454 172 CURVE SMOOTH",
"454 199 LINE",
"266 199 LINE",
"266 185 LINE SMOOTH",
"266 166 OFFCURVE",
"253 153 OFFCURVE",
"234 153 CURVE SMOOTH",
"215 153 OFFCURVE",
"202 166 OFFCURVE",
"202 185 CURVE SMOOTH",
"202 335 LINE SMOOTH",
"202 354 OFFCURVE",
"215 367 OFFCURVE",
"234 367 CURVE SMOOTH",
"253 367 OFFCURVE",
"266 354 OFFCURVE",
"266 335 CURVE SMOOTH",
"266 305 LINE",
"130 305 LINE",
"130 229 LINE",
"454 229 LINE",
"454 348 LINE SMOOTH",
"454 462 OFFCURVE",
"366 528 OFFCURVE",
"234 528 CURVE SMOOTH",
"102 528 OFFCURVE",
"14 462 OFFCURVE",
"14 348 CURVE SMOOTH",
"14 172 LINE SMOOTH",
"14 59 OFFCURVE",
"102 -7 OFFCURVE",
"234 -7 CURVE SMOOTH"
);
}
);
width = 468;
},
{
associatedMasterId = "262880E7-CFE1-4BDA-902E-E24798F3240A";
layerId = "2153B60D-5D07-46F5-B0B1-14ACB4774733";
name = "Nov 21 16, 16:41";
paths = (
{
closed = 1;
nodes = (
"349 110 LINE",
"335 51 OFFCURVE",
"285 13 OFFCURVE",
"216 13 CURVE SMOOTH",
"133 13 OFFCURVE",
"78 70 OFFCURVE",
"78 155 CURVE SMOOTH",
"78 345 LINE SMOOTH",
"78 430 OFFCURVE",
"133 487 OFFCURVE",
"215 487 CURVE SMOOTH",
"298 487 OFFCURVE",
"353 430 OFFCURVE",
"353 345 CURVE SMOOTH",
"353 262 LINE",
"68 262 LINE",
"68 241 LINE",
"375 241 LINE",
"375 342 LINE SMOOTH",
"375 442 OFFCURVE",
"312 508 OFFCURVE",
"215 508 CURVE SMOOTH",
"119 508 OFFCURVE",
"56 442 OFFCURVE",
"56 342 CURVE SMOOTH",
"56 158 LINE SMOOTH",
"56 58 OFFCURVE",
"119 -8 OFFCURVE",
"216 -8 CURVE SMOOTH",
"299 -8 OFFCURVE",
"357 38 OFFCURVE",
"371 110 CURVE"
);
}
);
width = 431;
},
{
associatedMasterId = "262880E7-CFE1-4BDA-902E-E24798F3240A";
layerId = "97C22096-986C-4BA2-9F55-2CF144B537C3";
name = "{95,100}";
paths = (
{
closed = 1;
nodes = (
"305 141 LINE",
"296 99 OFFCURVE",
"264 74 OFFCURVE",
"219 74 CURVE SMOOTH",
"166 74 OFFCURVE",
"131 112 OFFCURVE",
"131 168 CURVE SMOOTH",
"131 341 LINE SMOOTH",
"131 397 OFFCURVE",
"166 435 OFFCURVE",
"219 435 CURVE SMOOTH",
"272 435 OFFCURVE",
"307 397 OFFCURVE",
"307 341 CURVE SMOOTH",
"307 297 LINE",
"94 297 LINE",
"94 215 LINE",
"402 215 LINE",
"402 345 LINE SMOOTH",
"402 448 OFFCURVE",
"329 517 OFFCURVE",
"219 517 CURVE SMOOTH",
"109 517 OFFCURVE",
"36 448 OFFCURVE",
"36 345 CURVE SMOOTH",
"36 164 LINE SMOOTH",
"36 61 OFFCURVE",
"109 -8 OFFCURVE",
"219 -8 CURVE SMOOTH",
"322 -8 OFFCURVE",
"391 50 OFFCURVE",
"399 139 CURVE"
);
}
);
width = 438;
}
);
leftKerningGroup = o;
rightKerningGroup = o;
unicode = 0065;
},
{
glyphname = f;
lastChange = "2016-12-01 07:14:07 +0000";
layers = (
{
layerId = "262880E7-CFE1-4BDA-902E-E24798F3240A";
paths = (
{
closed = 1;
nodes = (
"130 0 LINE",
"130 550 LINE SMOOTH",
"130 637 OFFCURVE",
"158 689 OFFCURVE",
"268 689 CURVE",
"268 710 LINE",
"144 710 OFFCURVE",
"108 650 OFFCURVE",
"108 550 CURVE SMOOTH",
"108 0 LINE"
);
},
{
closed = 1;
nodes = (
"240 479 LINE",
"240 500 LINE",
"35 500 LINE",
"35 479 LINE"
);
}
);
width = 268;
},
{
layerId = "4E2227F3-52E4-4048-A8EE-327B486EF0A4";
paths = (
{
closed = 1;
nodes = (
"229 0 LINE",
"229 539 LINE",
"229 557 OFFCURVE",
"242 572 OFFCURVE",
"266 575 CURVE",
"266 700 LINE",
"124 707 OFFCURVE",
"41 683 OFFCURVE",
"41 556 CURVE",
"41 0 LINE"
);
},
{
closed = 1;
nodes = (
"287 380 LINE",
"287 520 LINE",
"0 520 LINE",
"0 380 LINE"
);
}
);
width = 287;
}
);
leftKerningGroup = t;
unicode = 0066;
},
{
glyphname = g;
lastChange = "2016-12-01 05:32:35 +0000";
layers = (
{
components = (
{
name = b.bowl;
transform = "{-1, 0, 0, 1, 397, 0}";
}
);
layerId = "262880E7-CFE1-4BDA-902E-E24798F3240A";
paths = (
{
closed = 1;
nodes = (
"334 -203 OFFCURVE",
"402 -137 OFFCURVE",
"402 0 CURVE SMOOTH",
"402 500 LINE",
"379 500 LINE",
"379 0 LINE SMOOTH",
"379 -123 OFFCURVE",
"319 -182 OFFCURVE",
"208 -178 CURVE",
"208 -199 LINE"
);
}
);
width = 483;
},
{
components = (
{
name = b.bowl;
transform = "{-1, 0, 0, 1, 285, 0}";
}
);
layerId = "4E2227F3-52E4-4048-A8EE-327B486EF0A4";
paths = (
{
closed = 1;
nodes = (
"383 -233 OFFCURVE",
"436 -115 OFFCURVE",
"436 34 CURVE SMOOTH",
"436 520 LINE",
"248 520 LINE",
"248 54 LINE SMOOTH",
"248 -14 OFFCURVE",
"241 -56 OFFCURVE",
"96 -45 CURVE",
"96 -207 LINE"
);
}
);
width = 454;
}
);
leftKerningGroup = d;
rightKerningGroup = g;
unicode = 0067;
},
{
glyphname = h;
lastChange = "2016-12-01 05:32:35 +0000";
layers = (
{
components = (
{
name = n.curve;
transform = "{1, 0, 0, 1, 86, 0}";
}
);
layerId = "262880E7-CFE1-4BDA-902E-E24798F3240A";
paths = (
{
closed = 1;
nodes = (
"103 0 LINE",
"103 700 LINE",
"81 700 LINE",
"81 0 LINE"
);
}
);
width = 454;
},
{
components = (
{
name = n.curve;
transform = "{1, 0, 0, 1, 170, 0}";
}
);
layerId = "4E2227F3-52E4-4048-A8EE-327B486EF0A4";
paths = (
{
closed = 1;
nodes = (
"206 0 LINE",
"206 700 LINE",
"18 700 LINE",
"18 0 LINE"
);
}
);
width = 452;
}
);
leftKerningGroup = b;
rightKerningGroup = n;
unicode = 0068;
},
{
glyphname = i;
lastChange = "2016-12-01 05:29:18 +0000";
layers = (
{
layerId = "262880E7-CFE1-4BDA-902E-E24798F3240A";
paths = (
{
closed = 1;
nodes = (
"103 0 LINE",
"103 500 LINE",
"81 500 LINE",
"81 0 LINE"
);
},
{
closed = 1;
nodes = (
"108 660 OFFCURVE",
"121 673 OFFCURVE",
"121 690 CURVE SMOOTH",
"121 706 OFFCURVE",
"108 719 OFFCURVE",
"92 719 CURVE SMOOTH",
"75 719 OFFCURVE",
"62 706 OFFCURVE",
"62 690 CURVE SMOOTH",
"62 673 OFFCURVE",
"75 660 OFFCURVE",
"92 660 CURVE SMOOTH"
);
}
);
width = 184;
},
{
layerId = "4E2227F3-52E4-4048-A8EE-327B486EF0A4";
paths = (
{
closed = 1;
nodes = (
"206 0 LINE",
"206 520 LINE",
"18 520 LINE",
"18 0 LINE"
);
},
{
closed = 1;
nodes = (
"175 540 OFFCURVE",
"216 582 OFFCURVE",
"216 645 CURVE SMOOTH",
"216 708 OFFCURVE",
"175 750 OFFCURVE",
"112 750 CURVE SMOOTH",
"50 750 OFFCURVE",
"8 708 OFFCURVE",
"8 645 CURVE SMOOTH",
"8 582 OFFCURVE",
"50 540 OFFCURVE",
"112 540 CURVE SMOOTH"
);
}
);
width = 224;
}
);
leftKerningGroup = i;
unicode = 0069;
},
{
glyphname = j;
lastChange = "2016-12-01 05:29:18 +0000";
layers = (
{
layerId = "262880E7-CFE1-4BDA-902E-E24798F3240A";
paths = (
{
closed = 1;
nodes = (
"82 -211 OFFCURVE",
"130 -159 OFFCURVE",
"130 -74 CURVE SMOOTH",
"130 500 LINE",
"108 500 LINE",
"108 -74 LINE SMOOTH",
"108 -146 OFFCURVE",
"68 -190 OFFCURVE",
"2 -190 CURVE",
"2 -211 LINE"
);
},
{
closed = 1;
nodes = (
"137 660 OFFCURVE",
"148 671 OFFCURVE",
"148 690 CURVE SMOOTH",
"148 709 OFFCURVE",
"137 719 OFFCURVE",
"119 719 CURVE SMOOTH",
"101 719 OFFCURVE",
"89 709 OFFCURVE",
"89 690 CURVE SMOOTH",
"89 671 OFFCURVE",
"101 660 OFFCURVE",
"119 660 CURVE SMOOTH"
);
}
);
width = 220;
},
{
layerId = "4E2227F3-52E4-4048-A8EE-327B486EF0A4";
paths = (
{
closed = 1;
nodes = (
"207 -210 OFFCURVE",
"212 -120 OFFCURVE",
"212 29 CURVE SMOOTH",
"212 520 LINE",
"24 520 LINE",
"24 29 LINE SMOOTH",
"24 -19 OFFCURVE",
"9 -49 OFFCURVE",
"-72 -41 CURVE",
"-72 -201 LINE"
);
},
{
closed = 1;
nodes = (
"179 540 OFFCURVE",
"222 587 OFFCURVE",
"222 645 CURVE SMOOTH",
"222 703 OFFCURVE",
"170 749 OFFCURVE",
"118 749 CURVE SMOOTH",
"65 749 OFFCURVE",
"14 703 OFFCURVE",
"14 645 CURVE SMOOTH",
"14 587 OFFCURVE",
"56 540 OFFCURVE",
"118 540 CURVE SMOOTH"
);
}
);
width = 232;
}
);
leftKerningGroup = j;
unicode = 006A;
},
{
glyphname = k;
lastChange = "2016-12-01 05:29:18 +0000";
layers = (
{
guideLines = (
{
angle = 180;
position = "{283, 0}";
showMeasurement = 1;
},
{
angle = 180;
position = "{229, 332}";
showMeasurement = 1;
}
);
layerId = "262880E7-CFE1-4BDA-902E-E24798F3240A";
paths = (
{
closed = 1;
nodes = (
"112 0 LINE",
"112 201 LINE",
"227 327 LINE",
"379 0 LINE",
"403 0 LINE",
"243 344 LINE",
"385 500 LINE",
"357 500 LINE",
"112 227 LINE",
"112 700 LINE",
"90 700 LINE",
"90 0 LINE"
);
}
);
width = 430;
},
{
layerId = "4E2227F3-52E4-4048-A8EE-327B486EF0A4";
paths = (
{
closed = 1;
nodes = (
"208 0 LINE",
"208 137 LINE",
"221 166 LINE",
"273 0 LINE",
"467 0 LINE",
"336 315 LINE",
"461 520 LINE",
"268 520 LINE",
"208 392 LINE",
"208 700 LINE",
"20 700 LINE",
"20 0 LINE"
);
}
);
width = 473;
}
);
leftKerningGroup = b;
rightKerningGroup = k;
unicode = 006B;
},
{
glyphname = l;
lastChange = "2016-12-01 05:29:18 +0000";
layers = (
{
layerId = "262880E7-CFE1-4BDA-902E-E24798F3240A";
paths = (
{
closed = 1;
nodes = (
"112 0 LINE",
"112 700 LINE",
"90 700 LINE",
"90 0 LINE"
);
}
);
width = 202;
},
{
layerId = "4E2227F3-52E4-4048-A8EE-327B486EF0A4";
paths = (
{
closed = 1;
nodes = (
"208 0 LINE",
"208 700 LINE",
"20 700 LINE",
"20 0 LINE"
);
}
);
width = 228;
}
);
leftKerningGroup = l;
rightKerningGroup = l;
unicode = 006C;
},
{
glyphname = m;
lastChange = "2016-12-01 07:14:24 +0000";
layers = (
{
components = (
{
name = n.curve;
transform = "{1, 0, 0, 1, 86, 0}";
},
{
name = n.curve;
transform = "{1, 0, 0, 1, 374, 0}";
}
);
layerId = "262880E7-CFE1-4BDA-902E-E24798F3240A";
paths = (
{
closed = 1;
nodes = (
"103 0 LINE",
"103 500 LINE",
"81 500 LINE",
"81 0 LINE"
);
}
);
width = 742;
},
{
components = (
{
name = n.curve;
transform = "{1, 0, 0, 1, 170, 0}";
},
{
name = n.curve;
transform = "{1, 0, 0, 1, 402, 0}";
}
);
layerId = "4E2227F3-52E4-4048-A8EE-327B486EF0A4";
paths = (
{
closed = 1;
nodes = (
"206 0 LINE",
"206 520 LINE",
"18 520 LINE",
"18 0 LINE"
);
}
);
width = 684;
}
);
leftKerningGroup = n;
rightKerningGroup = h;
unicode = 006D;
},
{
glyphname = n;
lastChange = "2016-12-01 05:32:35 +0000";
layers = (
{
components = (
{
name = n.curve;
transform = "{1, 0, 0, 1, 86, 0}";
}
);
layerId = "262880E7-CFE1-4BDA-902E-E24798F3240A";
paths = (
{
closed = 1;
nodes = (
"103 0 LINE",
"103 500 LINE",
"81 500 LINE",
"81 0 LINE"
);
}
);
width = 454;
},
{
components = (
{
name = n.curve;
transform = "{1, 0, 0, 1, 170, 0}";
}
);
layerId = "4E2227F3-52E4-4048-A8EE-327B486EF0A4";
paths = (
{
closed = 1;
nodes = (
"206 0 LINE",
"206 520 LINE",
"18 520 LINE",
"18 0 LINE"
);
}
);
width = 452;
}
);
leftKerningGroup = n;
rightKerningGroup = n;
unicode = 006E;
},
{
color = 3;
glyphname = o;
lastChange = "2016-12-01 05:29:18 +0000";
layers = (
{
guideLines = (
{
angle = 180;
position = "{229, 250}";
showMeasurement = 1;
},
{
angle = 120;
position = "{229, 250}";
showMeasurement = 1;
},
{
angle = 60;
position = "{229, 250}";
showMeasurement = 1;
}
);
layerId = "262880E7-CFE1-4BDA-902E-E24798F3240A";
paths = (
{
closed = 1;
nodes = (
"310 -8 OFFCURVE",
"373 58 OFFCURVE",
"373 158 CURVE SMOOTH",
"373 342 LINE SMOOTH",
"373 442 OFFCURVE",
"310 508 OFFCURVE",
"213 508 CURVE SMOOTH",
"117 508 OFFCURVE",
"54 442 OFFCURVE",
"54 342 CURVE SMOOTH",
"54 158 LINE SMOOTH",
"54 58 OFFCURVE",
"117 -8 OFFCURVE",
"213 -8 CURVE SMOOTH"
);
},
{
closed = 1;
nodes = (
"131 13 OFFCURVE",
"76 70 OFFCURVE",
"76 155 CURVE SMOOTH",
"76 345 LINE SMOOTH",
"76 430 OFFCURVE",
"131 487 OFFCURVE",
"213 487 CURVE SMOOTH",
"296 487 OFFCURVE",
"351 430 OFFCURVE",
"351 345 CURVE SMOOTH",
"351 155 LINE SMOOTH",
"351 70 OFFCURVE",
"296 13 OFFCURVE",
"213 13 CURVE SMOOTH"
);
}
);
width = 427;
},
{
layerId = "4E2227F3-52E4-4048-A8EE-327B486EF0A4";
paths = (
{
closed = 1;
nodes = (
"352 -7 OFFCURVE",
"437 59 OFFCURVE",
"437 172 CURVE SMOOTH",
"437 348 LINE SMOOTH",
"437 462 OFFCURVE",
"352 532 OFFCURVE",
"225 532 CURVE SMOOTH",
"97 532 OFFCURVE",
"12 462 OFFCURVE",
"12 348 CURVE SMOOTH",
"12 172 LINE SMOOTH",
"12 59 OFFCURVE",
"97 -7 OFFCURVE",
"225 -7 CURVE SMOOTH"
);
},
{
closed = 1;
nodes = (
"210 153 OFFCURVE",
"200 166 OFFCURVE",
"200 185 CURVE SMOOTH",
"200 335 LINE SMOOTH",
"200 354 OFFCURVE",
"210 367 OFFCURVE",
"225 367 CURVE SMOOTH",
"239 367 OFFCURVE",
"249 354 OFFCURVE",
"249 335 CURVE SMOOTH",
"249 185 LINE SMOOTH",
"249 166 OFFCURVE",
"239 153 OFFCURVE",
"225 153 CURVE SMOOTH"
);
}
);
width = 449;
},
{
associatedMasterId = "262880E7-CFE1-4BDA-902E-E24798F3240A";
guideLines = (
{
angle = 180;
position = "{227, 250}";
showMeasurement = 1;
},
{
angle = 120;
position = "{227, 250}";
showMeasurement = 1;
},
{
angle = 60;
position = "{227, 250}";
showMeasurement = 1;
}
);
layerId = "DDD177BB-467D-491E-BE2C-0301FA3F2D98";
name = "{95,100}";
paths = (
{
closed = 1;
nodes = (
"324 -8 OFFCURVE",
"397 58 OFFCURVE",
"397 164 CURVE SMOOTH",
"397 345 LINE SMOOTH",
"397 451 OFFCURVE",
"324 518 OFFCURVE",
"214 518 CURVE SMOOTH",
"104 518 OFFCURVE",
"31 451 OFFCURVE",
"31 345 CURVE SMOOTH",
"31 164 LINE SMOOTH",
"31 58 OFFCURVE",
"104 -8 OFFCURVE",
"214 -8 CURVE SMOOTH"
);
},
{
closed = 1;
nodes = (
"161 82 OFFCURVE",
"126 120 OFFCURVE",
"126 176 CURVE SMOOTH",
"126 334 LINE SMOOTH",
"126 390 OFFCURVE",
"161 428 OFFCURVE",
"214 428 CURVE SMOOTH",
"267 428 OFFCURVE",
"302 390 OFFCURVE",
"302 334 CURVE SMOOTH",
"302 176 LINE SMOOTH",
"302 120 OFFCURVE",
"267 82 OFFCURVE",
"214 82 CURVE SMOOTH"
);
}
);
width = 428;
}
);
leftKerningGroup = o;
rightKerningGroup = o;
unicode = 006F;
},
{
color = 3;
glyphname = r;
lastChange = "2016-12-02 03:54:59 +0000";
layers = (
{
layerId = "262880E7-CFE1-4BDA-902E-E24798F3240A";
paths = (
{
closed = 1;
nodes = (
"103 331 LINE",
"103 419 OFFCURVE",
"156 479 OFFCURVE",
"231 479 CURVE SMOOTH",
"255 479 OFFCURVE",
"269 474 OFFCURVE",
"283 466 CURVE",
"293 489 LINE",
"277 498 OFFCURVE",
"261 504 OFFCURVE",
"233 504 CURVE SMOOTH",
"145 504 OFFCURVE",
"88 438 OFFCURVE",
"88 331 CURVE"
);
},
{
closed = 1;
nodes = (
"103 0 LINE",
"103 500 LINE",
"81 500 LINE",
"81 0 LINE"
);
}
);
width = 311;
},
{
layerId = "4E2227F3-52E4-4048-A8EE-327B486EF0A4";
paths = (
{
closed = 1;
nodes = (
"206 273 LINE",
"206 294 OFFCURVE",
"218 318 OFFCURVE",
"237 327 CURVE SMOOTH",
"261 338 OFFCURVE",
"300 333 OFFCURVE",
"310 325 CURVE",
"339 510 LINE",
"330 519 OFFCURVE",
"314 527 OFFCURVE",
"289 527 CURVE SMOOTH",
"172 527 OFFCURVE",
"178 352 OFFCURVE",
"178 273 CURVE"
);
},
{
closed = 1;
nodes = (
"206 1 LINE",
"206 520 LINE",
"18 520 LINE",
"18 1 LINE"
);
}
);
width = 335;
},
{
associatedMasterId = "262880E7-CFE1-4BDA-902E-E24798F3240A";
layerId = "02ED68AE-2BDF-4CBE-81BE-5A54F9C1FD96";
name = "{95,100}";
paths = (
{
closed = 1;
nodes = (
"141 306 LINE",
"141 364 OFFCURVE",
"176 409 OFFCURVE",
"227 413 CURVE SMOOTH",
"251 417 OFFCURVE",
"276 412 OFFCURVE",
"288 404 CURVE",
"306 498 LINE",
"293 507 OFFCURVE",
"277 514 OFFCURVE",
"251 514 CURVE SMOOTH",
"156 514 OFFCURVE",
"100 415 OFFCURVE",
"100 306 CURVE"
);
},
{
closed = 1;
nodes = (
"141 0 LINE",
"141 509 LINE",
"47 509 LINE",
"47 0 LINE"
);
}
);
width = 315;
}
);
leftKerningGroup = n;
rightKerningGroup = r;
unicode = 0072;
},
{
color = 3;
glyphname = s;
lastChange = "2016-12-01 05:29:18 +0000";
layers = (
{
layerId = "262880E7-CFE1-4BDA-902E-E24798F3240A";
paths = (
{
closed = 1;
nodes = (
"293 -4 OFFCURVE",
"349 43 OFFCURVE",
"349 123 CURVE SMOOTH",
"349 211 OFFCURVE",
"281 231 OFFCURVE",
"196 263 CURVE SMOOTH",
"111 295 OFFCURVE",
"69 317 OFFCURVE",
"69 378 CURVE SMOOTH",
"69 443 OFFCURVE",
"116 483 OFFCURVE",
"195 483 CURVE SMOOTH",
"277 483 OFFCURVE",
"325 441 OFFCURVE",
"325 369 CURVE SMOOTH",
"325 344 LINE",
"347 344 LINE",
"347 369 LINE SMOOTH",
"347 454 OFFCURVE",
"291 504 OFFCURVE",
"196 504 CURVE SMOOTH",
"102 504 OFFCURVE",
"47 456 OFFCURVE",
"47 378 CURVE SMOOTH",
"47 295 OFFCURVE",
"108 273 OFFCURVE",
"191 242 CURVE SMOOTH",
"279 209 OFFCURVE",
"327 189 OFFCURVE",
"327 123 CURVE SMOOTH",
"327 57 OFFCURVE",
"279 17 OFFCURVE",
"198 17 CURVE SMOOTH",
"116 17 OFFCURVE",
"67 57 OFFCURVE",
"67 126 CURVE SMOOTH",
"67 157 LINE",
"45 157 LINE",
"45 126 LINE SMOOTH",
"45 44 OFFCURVE",
"102 -4 OFFCURVE",
"198 -4 CURVE SMOOTH"
);
}
);
width = 394;
},
{
layerId = "4E2227F3-52E4-4048-A8EE-327B486EF0A4";
paths = (
{
closed = 1;
nodes = (
"351 -8 OFFCURVE",
"425 48 OFFCURVE",
"425 137 CURVE SMOOTH",
"425 221 OFFCURVE",
"376 271 OFFCURVE",
"265 304 CURVE SMOOTH",
"217 319 OFFCURVE",
"195 325 OFFCURVE",
"195 344 CURVE SMOOTH",
"195 355 OFFCURVE",
"200 363 OFFCURVE",
"215 363 CURVE SMOOTH",
"230 363 OFFCURVE",
"238 354 OFFCURVE",
"238 337 CURVE SMOOTH",
"238 336 LINE",
"413 336 LINE",
"413 336 LINE SMOOTH",
"413 463 OFFCURVE",
"347 528 OFFCURVE",
"214 528 CURVE SMOOTH",
"79 528 OFFCURVE",
"15 466 OFFCURVE",
"15 368 CURVE SMOOTH",
"15 281 OFFCURVE",
"58 221 OFFCURVE",
"167 195 CURVE SMOOTH",
"215 183 OFFCURVE",
"230 168 OFFCURVE",
"230 155 CURVE SMOOTH",
"230 145 OFFCURVE",
"224 139 OFFCURVE",
"212 139 CURVE SMOOTH",
"195 139 OFFCURVE",
"189 150 OFFCURVE",
"189 165 CURVE SMOOTH",
"189 166 LINE",
"10 166 LINE",
"10 166 LINE",
"10 49 OFFCURVE",
"69 -8 OFFCURVE",
"219 -8 CURVE SMOOTH"
);
}
);
width = 435;
},
{
associatedMasterId = "262880E7-CFE1-4BDA-902E-E24798F3240A";
layerId = "2F89E25A-9421-408A-A71F-A73137EE6AE7";
name = "{95,100}";
paths = (
{
closed = 1;
nodes = (
"321 -6 OFFCURVE",
"381 53 OFFCURVE",
"381 135 CURVE SMOOTH",
"381 229 OFFCURVE",
"305 268 OFFCURVE",
"231 293 CURVE SMOOTH",
"177 312 OFFCURVE",
"124 324 OFFCURVE",
"124 367 CURVE SMOOTH",
"124 399 OFFCURVE",
"152 424 OFFCURVE",
"203 424 CURVE SMOOTH",
"256 424 OFFCURVE",
"286 396 OFFCURVE",
"286 348 CURVE SMOOTH",
"286 341 LINE",
"375 341 LINE",
"375 355 LINE SMOOTH",
"375 458 OFFCURVE",
"313 514 OFFCURVE",
"205 514 CURVE SMOOTH",
"93 514 OFFCURVE",
"33 452 OFFCURVE",
"33 369 CURVE SMOOTH",
"33 263 OFFCURVE",
"127 234 OFFCURVE",
"191 214 CURVE SMOOTH",
"246 197 OFFCURVE",
"284 179 OFFCURVE",
"284 140 CURVE SMOOTH",
"284 107 OFFCURVE",
"255 84 OFFCURVE",
"205 84 CURVE SMOOTH",
"150 84 OFFCURVE",
"120 112 OFFCURVE",
"120 157 CURVE SMOOTH",
"120 161 LINE",
"30 161 LINE",
"30 143 LINE SMOOTH",
"30 46 OFFCURVE",
"90 -6 OFFCURVE",
"202 -6 CURVE SMOOTH"
);
}
);
width = 411;
}
);
leftKerningGroup = s;
rightKerningGroup = s;
unicode = 0073;
},
{
glyphname = t;
lastChange = "2016-12-01 08:26:04 +0000";
layers = (
{
layerId = "262880E7-CFE1-4BDA-902E-E24798F3240A";
paths = (
{
closed = 1;
nodes = (
"235 0 LINE",
"235 21 LINE",
"209 21 LINE SMOOTH",
"134 21 OFFCURVE",
"112 57 OFFCURVE",
"112 153 CURVE SMOOTH",
"112 610 LINE",
"90 610 LINE",
"90 153 LINE SMOOTH",
"90 43 OFFCURVE",
"121 0 OFFCURVE",
"209 0 CURVE SMOOTH"
);
},
{
closed = 1;
nodes = (
"235 479 LINE",
"235 500 LINE",
"22 500 LINE",
"22 479 LINE"
);
}
);
width = 289;
},
{
layerId = "4E2227F3-52E4-4048-A8EE-327B486EF0A4";
paths = (
{
closed = 1;
nodes = (
"295 0 LINE",
"295 155 LINE",
"263 155 LINE",
"253 155 OFFCURVE",
"232 162 OFFCURVE",
"232 186 CURVE",
"232 640 LINE",
"52 640 LINE",
"52 126 LINE",
"52 6 OFFCURVE",
"133 0 OFFCURVE",
"217 0 CURVE SMOOTH"
);
},
{
closed = 1;
nodes = (
"295 380 LINE",
"295 520 LINE",
"4 520 LINE",
"4 380 LINE"
);
}
);
width = 307;
}
);
leftKerningGroup = t;
rightKerningGroup = t;
unicode = 0074;
},
{
color = 3;
glyphname = u;
lastChange = "2016-12-01 08:26:43 +0000";
layers = (
{
layerId = "262880E7-CFE1-4BDA-902E-E24798F3240A";
paths = (
{
closed = 1;
nodes = (
"351 500 LINE",
"351 0 LINE",
"373 0 LINE",
"373 500 LINE"
);
},
{
closed = 1;
nodes = (
"63 500 LINE",
"63 153 LINE SMOOTH",
"63 54 OFFCURVE",
"124 -7 OFFCURVE",
"212 -7 CURVE SMOOTH",
"306 -7 OFFCURVE",
"367 57 OFFCURVE",
"367 157 CURVE",
"351 157 LINE",
"351 70 OFFCURVE",
"297 14 OFFCURVE",
"215 14 CURVE SMOOTH",
"138 14 OFFCURVE",
"85 68 OFFCURVE",
"85 156 CURVE SMOOTH",
"85 500 LINE"
);
}
);
width = 454;
},
{
layerId = "4E2227F3-52E4-4048-A8EE-327B486EF0A4";
paths = (
{
closed = 1;
nodes = (
"249 520 LINE",
"249 0 LINE",
"437 0 LINE",
"437 520 LINE"
);
},
{
closed = 1;
nodes = (
"18 520 LINE",
"18 172 LINE SMOOTH",
"18 61 OFFCURVE",
"49 -8 OFFCURVE",
"149 -8 CURVE SMOOTH",
"187 -8 OFFCURVE",
"287 10 OFFCURVE",
"286 185 CURVE",
"249 185 LINE",
"249 166 OFFCURVE",
"240 153 OFFCURVE",
"227 153 CURVE SMOOTH",
"214 153 OFFCURVE",
"206 166 OFFCURVE",
"206 185 CURVE SMOOTH",
"206 520 LINE"
);
}
);
width = 457;
},
{
associatedMasterId = "262880E7-CFE1-4BDA-902E-E24798F3240A";
layerId = "62D7DD80-CFB5-43C9-877A-95E1F2C64F58";
name = "{95,100}";
paths = (
{
closed = 1;
nodes = (
"289 509 LINE",
"289 0 LINE",
"383 0 LINE",
"383 509 LINE"
);
},
{
closed = 1;
nodes = (
"26 509 LINE",
"26 161 LINE SMOOTH",
"26 57 OFFCURVE",
"78 -7 OFFCURVE",
"172 -7 CURVE SMOOTH",
"246 -7 OFFCURVE",
"319 16 OFFCURVE",
"319 169 CURVE",
"289 169 LINE",
"289 112 OFFCURVE",
"254 75 OFFCURVE",
"202 75 CURVE SMOOTH",
"153 75 OFFCURVE",
"120 111 OFFCURVE",
"120 169 CURVE SMOOTH",
"120 509 LINE"
);
}
);
width = 433;
}
);
leftKerningGroup = u;
unicode = 0075;
},
{
glyphname = v;
lastChange = "2016-12-01 05:33:19 +0000";
layers = (
{
layerId = "262880E7-CFE1-4BDA-902E-E24798F3240A";
paths = (
{
closed = 1;
nodes = (
"206 0 LINE",
"363 500 LINE",
"338 500 LINE",
"195 33 LINE",
"52 500 LINE",
"27 500 LINE",
"184 0 LINE"
);
}
);
width = 399;
},
{
layerId = "4E2227F3-52E4-4048-A8EE-327B486EF0A4";
paths = (
{
closed = 1;
nodes = (
"325 -2 LINE",
"464 518 LINE",
"260 520 LINE",
"235 256 LINE",
"210 520 LINE",
"6 520 LINE",
"145 0 LINE"
);
}
);
width = 472;
}
);
leftKerningGroup = v;
rightKerningGroup = v;
unicode = 0076;
},
{
color = 3;
glyphname = w;
lastChange = "2016-12-01 07:18:26 +0000";
layers = (
{
layerId = "262880E7-CFE1-4BDA-902E-E24798F3240A";
paths = (
{
closed = 1;
nodes = (
"182 0 LINE",
"301 461 LINE",
"421 0 LINE",
"443 0 LINE",
"575 500 LINE",
"553 500 LINE",
"433 27 LINE",
"313 500 LINE",
"292 500 LINE",
"172 27 LINE",
"52 500 LINE",
"27 500 LINE",
"160 0 LINE"
);
}
);
width = 611;
},
{
layerId = "4E2227F3-52E4-4048-A8EE-327B486EF0A4";
paths = (
{
closed = 1;
nodes = (
"281 -2 LINE",
"312 211 LINE",
"343 0 LINE",
"507 -2 LINE",
"629 518 LINE",
"443 520 LINE",
"414 246 LINE",
"383 520 LINE",
"255 520 LINE",
"222 246 LINE",
"195 520 LINE",
"6 520 LINE",
"127 0 LINE"
);
}
);
width = 637;
},
{
associatedMasterId = "262880E7-CFE1-4BDA-902E-E24798F3240A";
layerId = "E3597918-BEF7-4A52-8D4A-AF02D251D940";
name = "{95,100}";
paths = (
{
closed = 1;
nodes = (
"226 -1 LINE",
"304 352 LINE",
"382 0 LINE",
"469 -1 LINE",
"596 508 LINE",
"503 509 LINE",
"427 128 LINE",
"341 509 LINE",
"268 509 LINE",
"183 128 LINE",
"112 509 LINE",
"16 509 LINE",
"143 0 LINE"
);
}
);
width = 617;
}
);
leftKerningGroup = v;
rightKerningGroup = v;
unicode = 0077;
},
{
glyphname = x;
lastChange = "2016-12-01 05:29:18 +0000";
layers = (
{
layerId = "262880E7-CFE1-4BDA-902E-E24798F3240A";
paths = (
{
closed = 1;
nodes = (
"52 0 LINE",
"199 233 LINE",
"345 0 LINE",
"370 0 LINE",
"210 250 LINE",
"370 500 LINE",
"345 500 LINE",
"199 267 LINE",
"52 500 LINE",
"27 500 LINE",
"188 250 LINE",
"27 0 LINE"
);
}
);
width = 406;
},
{
layerId = "4E2227F3-52E4-4048-A8EE-327B486EF0A4";
paths = (
{
closed = 1;
nodes = (
"200 0 LINE",
"231 105 LINE",
"262 0 LINE",
"456 0 LINE",
"326 260 LINE",
"456 520 LINE",
"262 520 LINE",
"231 420 LINE",
"200 520 LINE",
"6 520 LINE",
"136 260 LINE",
"6 0 LINE"
);
}
);
width = 464;
}
);
leftKerningGroup = x;
unicode = 0078;
},
{
glyphname = y;
lastChange = "2016-12-01 05:29:18 +0000";
layers = (
{
layerId = "262880E7-CFE1-4BDA-902E-E24798F3240A";
paths = (
{
closed = 1;
nodes = (
"126 -200 OFFCURVE",
"150 -188 OFFCURVE",
"190 -62 CURVE SMOOTH",
"367 500 LINE",
"344 500 LINE",
"200 27 LINE",
"49 500 LINE",
"27 500 LINE",
"189 0 LINE",
"145 -150 OFFCURVE",
"133 -181 OFFCURVE",
"62 -181 CURVE",
"62 -200 LINE"
);
}
);
width = 403;
},
{
layerId = "4E2227F3-52E4-4048-A8EE-327B486EF0A4";
paths = (
{
closed = 1;
nodes = (
"255 -198 OFFCURVE",
"286 -143 OFFCURVE",
"326 -2 CURVE",
"453 518 LINE",
"251 520 LINE",
"230 252 LINE",
"207 520 LINE",
"6 520 LINE",
"132 0 LINE",
"134 -21 OFFCURVE",
"136 -54 OFFCURVE",
"56 -52 CURVE",
"56 -198 LINE"
);
}
);
width = 461;
}
);
leftKerningGroup = v;
rightKerningGroup = v;
unicode = 0079;
},
{
glyphname = z;
lastChange = "2016-12-01 05:29:18 +0000";
layers = (
{
layerId = "262880E7-CFE1-4BDA-902E-E24798F3240A";
paths = (
{
closed = 1;
nodes = (
"352 0 LINE",
"352 21 LINE",
"60 21 LINE",
"356 479 LINE",
"356 500 LINE",
"40 500 LINE",
"40 479 LINE",
"332 479 LINE",
"36 21 LINE",
"36 0 LINE"
);
}
);
width = 401;
},
{
layerId = "4E2227F3-52E4-4048-A8EE-327B486EF0A4";
paths = (
{
closed = 1;
nodes = (
"373 0 LINE",
"373 170 LINE",
"222 170 LINE",
"364 350 LINE",
"364 520 LINE",
"15 520 LINE",
"15 350 LINE",
"140 350 LINE",
"8 170 LINE",
"8 0 LINE"
);
}
);
width = 383;
}
);
leftKerningGroup = z;
unicode = 007A;
},
{
glyphname = a.alt;
lastChange = "2016-12-01 04:49:42 +0000";
layers = (
{
components = (
{
name = b.bowl;
transform = "{-1, 0, 0, 1, 369, 0}";
}
);
layerId = "262880E7-CFE1-4BDA-902E-E24798F3240A";
paths = (
{
closed = 1;
nodes = (
"373 0 LINE",
"373 500 LINE",
"351 500 LINE",
"351 0 LINE"
);
}
);
width = 473;
},
{
components = (
{
name = b.bowl;
transform = "{-1, 0, 0, 1, 278, 0}";
}
);
layerId = "4E2227F3-52E4-4048-A8EE-327B486EF0A4";
paths = (
{
closed = 1;
nodes = (
"430 0 LINE",
"430 520 LINE",
"242 520 LINE",
"242 0 LINE"
);
}
);
width = 468;
},
{
associatedMasterId = "262880E7-CFE1-4BDA-902E-E24798F3240A";
components = (
{
name = b.bowl;
transform = "{-1, 0, 0, 1, 353, 0}";
}
);
layerId = "B3FF5359-FBFA-47B2-BD2A-5A0E8F8E4EE4";
name = "{95,100}";
paths = (
{
closed = 1;
nodes = (
"422 0 LINE",
"422 509 LINE",
"328 509 LINE",
"328 0 LINE"
);
}
);
width = 471;
}
);
leftKerningGroup = a;
rightKerningGroup = a;
},
{
export = 0;
glyphname = b.bowl;
lastChange = "2016-12-01 04:52:49 +0000";
layers = (
{
layerId = "262880E7-CFE1-4BDA-902E-E24798F3240A";
paths = (
{
closed = 1;
nodes = (
"256 -8 OFFCURVE",
"316 55 OFFCURVE",
"316 158 CURVE SMOOTH",
"316 342 LINE SMOOTH",
"316 445 OFFCURVE",
"258 508 OFFCURVE",
"159 508 CURVE SMOOTH",
"61 508 OFFCURVE",
"0 441 OFFCURVE",
"0 342 CURVE SMOOTH",
"0 158 LINE SMOOTH",
"0 53 OFFCURVE",
"66 -8 OFFCURVE",
"157 -8 CURVE SMOOTH"
);
},
{
closed = 1;
nodes = (
"74 13 OFFCURVE",
"18 67 OFFCURVE",
"18 155 CURVE SMOOTH",
"18 345 LINE SMOOTH",
"18 433 OFFCURVE",
"74 487 OFFCURVE",
"157 487 CURVE SMOOTH",
"243 487 OFFCURVE",
"294 433 OFFCURVE",
"294 345 CURVE SMOOTH",
"294 155 LINE SMOOTH",
"294 67 OFFCURVE",
"243 13 OFFCURVE",
"157 13 CURVE SMOOTH"
);
}
);
width = 316;
},
{
layerId = "4E2227F3-52E4-4048-A8EE-327B486EF0A4";
paths = (
{
closed = 1;
nodes = (
"227 -8 OFFCURVE",
"267 66 OFFCURVE",
"267 177 CURVE SMOOTH",
"267 343 LINE SMOOTH",
"267 454 OFFCURVE",
"227 528 OFFCURVE",
"126 528 CURVE SMOOTH",
"91 528 OFFCURVE",
"0 513 OFFCURVE",
"0 323 CURVE SMOOTH",
"0 197 LINE",
"-4 7 OFFCURVE",
"91 -8 OFFCURVE",
"126 -8 CURVE SMOOTH"
);
},
{
closed = 1;
nodes = (
"45 164 OFFCURVE",
"36 177 OFFCURVE",
"36 197 CURVE SMOOTH",
"36 323 LINE SMOOTH",
"36 343 OFFCURVE",
"45 356 OFFCURVE",
"57 356 CURVE SMOOTH",
"70 356 OFFCURVE",
"79 343 OFFCURVE",
"79 323 CURVE SMOOTH",
"79 197 LINE SMOOTH",
"79 177 OFFCURVE",
"70 164 OFFCURVE",
"57 164 CURVE SMOOTH"
);
}
);
width = 267;
},
{
associatedMasterId = "262880E7-CFE1-4BDA-902E-E24798F3240A";
layerId = "7075B5C3-9D49-4D6E-BF1C-9E429270E949";
name = "{95,100}";
paths = (
{
closed = 1;
nodes = (
"238 -8 OFFCURVE",
"295 60 OFFCURVE",
"295 166 CURVE SMOOTH",
"295 342 LINE SMOOTH",
"295 449 OFFCURVE",
"239 517 OFFCURVE",
"140 517 CURVE SMOOTH",
"69 517 OFFCURVE",
"0 482 OFFCURVE",
"0 334 CURVE SMOOTH",
"0 175 LINE SMOOTH",
"0 23 OFFCURVE",
"72 -8 OFFCURVE",
"139 -8 CURVE SMOOTH"
);
},
{
closed = 1;
nodes = (
"60 79 OFFCURVE",
"26 116 OFFCURVE",
"26 173 CURVE SMOOTH",
"26 335 LINE SMOOTH",
"26 393 OFFCURVE",
"60 430 OFFCURVE",
"114 430 CURVE SMOOTH",
"167 430 OFFCURVE",
"200 395 OFFCURVE",
"200 335 CURVE SMOOTH",
"200 173 LINE SMOOTH",
"200 114 OFFCURVE",
"167 79 OFFCURVE",
"114 79 CURVE SMOOTH"
);
}
);
width = 295;
}
);
},
{
export = 0;
glyphname = n.curve;
lastChange = "2016-12-01 07:06:39 +0000";
layers = (
{
layerId = "262880E7-CFE1-4BDA-902E-E24798F3240A";
paths = (
{
closed = 1;
nodes = (
"305 0 LINE",
"305 347 LINE SMOOTH",
"305 446 OFFCURVE",
"244 507 OFFCURVE",
"156 507 CURVE SMOOTH",
"62 507 OFFCURVE",
"0 448 OFFCURVE",
"0 346 CURVE",
"17 346 LINE",
"17 433 OFFCURVE",
"71 486 OFFCURVE",
"153 486 CURVE SMOOTH",
"230 486 OFFCURVE",
"283 432 OFFCURVE",
"283 344 CURVE SMOOTH",
"283 0 LINE"
);
}
);
width = 305;
},
{
layerId = "4E2227F3-52E4-4048-A8EE-327B486EF0A4";
paths = (
{
closed = 1;
nodes = (
"268 0 LINE",
"268 348 LINE SMOOTH",
"268 459 OFFCURVE",
"227 528 OFFCURVE",
"126 528 CURVE SMOOTH",
"89 528 OFFCURVE",
"-1 515 OFFCURVE",
"0 335 CURVE",
"36 335 LINE",
"36 354 OFFCURVE",
"45 367 OFFCURVE",
"59 367 CURVE SMOOTH",
"72 367 OFFCURVE",
"80 354 OFFCURVE",
"80 335 CURVE SMOOTH",
"80 0 LINE"
);
}
);
width = 268;
},
{
associatedMasterId = "4E2227F3-52E4-4048-A8EE-327B486EF0A4";
layerId = "630D238C-9973-4C41-ABFD-64F1FC7A504D";
name = "{95.100}";
paths = (
{
closed = 1;
nodes = (
"289 0 LINE",
"289 347 LINE SMOOTH",
"289 452 OFFCURVE",
"237 516 OFFCURVE",
"143 516 CURVE SMOOTH",
"68 516 OFFCURVE",
"-22 469 OFFCURVE",
"-22 333 CURVE",
"25 333 LINE",
"25 391 OFFCURVE",
"60 426 OFFCURVE",
"112 426 CURVE SMOOTH",
"161 426 OFFCURVE",
"194 390 OFFCURVE",
"194 332 CURVE SMOOTH",
"194 0 LINE"
);
}
);
width = 289;
}
);
},
{
glyphname = zero;
lastChange = "2016-12-01 05:29:17 +0000";
layers = (
{
layerId = "262880E7-CFE1-4BDA-902E-E24798F3240A";
paths = (
{
closed = 1;
nodes = (
"338 -9 OFFCURVE",
"407 56 OFFCURVE",
"407 154 CURVE SMOOTH",
"407 546 LINE SMOOTH",
"407 644 OFFCURVE",
"338 709 OFFCURVE",
"240 709 CURVE SMOOTH",
"142 709 OFFCURVE",
"72 644 OFFCURVE",
"72 546 CURVE SMOOTH",
"72 154 LINE SMOOTH",
"72 56 OFFCURVE",
"142 -9 OFFCURVE",
"240 -9 CURVE SMOOTH"
);
},
{
closed = 1;
nodes = (
"155 12 OFFCURVE",
"94 68 OFFCURVE",
"94 152 CURVE SMOOTH",
"94 548 LINE SMOOTH",
"94 632 OFFCURVE",
"155 688 OFFCURVE",
"240 688 CURVE SMOOTH",
"325 688 OFFCURVE",
"385 632 OFFCURVE",
"385 548 CURVE SMOOTH",
"385 152 LINE SMOOTH",
"385 68 OFFCURVE",
"325 12 OFFCURVE",
"240 12 CURVE SMOOTH"
);
}
);
width = 479;
},
{
layerId = "4E2227F3-52E4-4048-A8EE-327B486EF0A4";
paths = (
{
closed = 1;
nodes = (
"363 -8 OFFCURVE",
"450 78 OFFCURVE",
"450 208 CURVE SMOOTH",
"450 492 LINE SMOOTH",
"450 622 OFFCURVE",
"363 708 OFFCURVE",
"233 708 CURVE SMOOTH",
"103 708 OFFCURVE",
"16 622 OFFCURVE",
"16 492 CURVE SMOOTH",
"16 208 LINE SMOOTH",
"16 78 OFFCURVE",
"103 -8 OFFCURVE",
"233 -8 CURVE SMOOTH"
);
},
{
closed = 1;
nodes = (
"216 162 OFFCURVE",
"204 180 OFFCURVE",
"204 208 CURVE SMOOTH",
"204 492 LINE SMOOTH",
"204 520 OFFCURVE",
"216 538 OFFCURVE",
"233 538 CURVE SMOOTH",
"250 538 OFFCURVE",
"262 520 OFFCURVE",
"262 492 CURVE SMOOTH",
"262 208 LINE SMOOTH",
"262 180 OFFCURVE",
"250 162 OFFCURVE",
"233 162 CURVE SMOOTH"
);
}
);
width = 466;
}
);
unicode = 0030;
},
{
glyphname = one;
lastChange = "2016-12-01 05:29:17 +0000";
layers = (
{
layerId = "262880E7-CFE1-4BDA-902E-E24798F3240A";
paths = (
{
closed = 1;
nodes = (
"192 0 LINE",
"192 700 LINE",
"170 700 LINE",
"170 0 LINE"
);
},
{
closed = 1;
nodes = (
"81 637 LINE",
"170 669 LINE",
"170 700 LINE",
"81 658 LINE"
);
}
);
width = 282;
},
{
layerId = "4E2227F3-52E4-4048-A8EE-327B486EF0A4";
paths = (
{
closed = 1;
nodes = (
"253 0 LINE",
"253 700 LINE",
"65 700 LINE",
"65 0 LINE"
);
},
{
closed = 1;
nodes = (
"18 529 LINE",
"65 529 LINE",
"65 700 LINE",
"18 673 LINE"
);
}
);
width = 273;
}
);
unicode = 0031;
},
{
glyphname = two;
lastChange = "2016-12-01 05:29:17 +0000";
layers = (
{
layerId = "262880E7-CFE1-4BDA-902E-E24798F3240A";
paths = (
{
closed = 1;
nodes = (
"404 0 LINE",
"404 21 LINE",
"89 21 LINE",
"303 323 LINE SMOOTH",
"365 410 OFFCURVE",
"396 485 OFFCURVE",
"396 544 CURVE SMOOTH",
"396 642 OFFCURVE",
"328 708 OFFCURVE",
"227 708 CURVE SMOOTH",
"129 708 OFFCURVE",
"63 642 OFFCURVE",
"63 544 CURVE SMOOTH",
"63 500 LINE",
"86 500 LINE",
"86 544 LINE",
"85 630 OFFCURVE",
"141 687 OFFCURVE",
"227 687 CURVE SMOOTH",
"315 687 OFFCURVE",
"374 630 OFFCURVE",
"374 544 CURVE SMOOTH",
"374 490 OFFCURVE",
"344 420 OFFCURVE",
"284 335 CURVE SMOOTH",
"63 21 LINE",
"63 0 LINE"
);
}
);
width = 449;
},
{
layerId = "4E2227F3-52E4-4048-A8EE-327B486EF0A4";
paths = (
{
closed = 1;
nodes = (
"453 0 LINE",
"453 170 LINE",
"275 170 LINE",
"393 311 LINE",
"442 382 OFFCURVE",
"447 425 OFFCURVE",
"447 520 CURVE SMOOTH",
"447 639 OFFCURVE",
"356 708 OFFCURVE",
"230 708 CURVE SMOOTH",
"108 708 OFFCURVE",
"21 640 OFFCURVE",
"14 520 CURVE",
"14 455 LINE",
"204 455 LINE",
"204 503 LINE",
"204 524 OFFCURVE",
"215 538 OFFCURVE",
"231 538 CURVE SMOOTH",
"246 538 OFFCURVE",
"257 524 OFFCURVE",
"257 503 CURVE SMOOTH",
"257 457 OFFCURVE",
"244 423 OFFCURVE",
"193 361 CURVE",
"18 170 LINE",
"18 0 LINE"
);
}
);
width = 463;
},
{
associatedMasterId = "262880E7-CFE1-4BDA-902E-E24798F3240A";
layerId = "F78DC261-0EB4-494E-AC31-41D8EA41B416";
name = "{95,100}";
paths = (
{
closed = 1;
nodes = (
"421 0 LINE",
"421 86 LINE",
"158 86 LINE",
"335 318 LINE SMOOTH",
"393 398 OFFCURVE",
"413 459 OFFCURVE",
"413 534 CURVE SMOOTH",
"413 646 OFFCURVE",
"341 708 OFFCURVE",
"220 708 CURVE SMOOTH",
"109 708 OFFCURVE",
"33 638 OFFCURVE",
"30 525 CURVE SMOOTH",
"30 480 LINE",
"126 480 LINE",
"126 513 LINE",
"125 576 OFFCURVE",
"163 618 OFFCURVE",
"220 618 CURVE SMOOTH",
"285 618 OFFCURVE",
"318 584 OFFCURVE",
"318 522 CURVE SMOOTH",
"318 472 OFFCURVE",
"295 421 OFFCURVE",
"237 346 CURVE SMOOTH",
"32 86 LINE",
"32 0 LINE"
);
}
);
width = 442;
}
);
unicode = 0032;
},
{
glyphname = three;
lastChange = "2016-12-01 05:29:17 +0000";
layers = (
{
layerId = "262880E7-CFE1-4BDA-902E-E24798F3240A";
paths = (
{
closed = 1;
nodes = (
"332 -8 OFFCURVE",
"398 58 OFFCURVE",
"398 158 CURVE SMOOTH",
"398 262 LINE SMOOTH",
"398 362 OFFCURVE",
"335 431 OFFCURVE",
"225 428 CURVE",
"401 679 LINE",
"401 700 LINE",
"68 700 LINE",
"68 679 LINE",
"375 679 LINE",
"189 416 LINE",
"200 404 LINE",
"210 406 OFFCURVE",
"220 407 OFFCURVE",
"231 407 CURVE SMOOTH",
"318 407 OFFCURVE",
"376 350 OFFCURVE",
"376 265 CURVE SMOOTH",
"376 155 LINE SMOOTH",
"376 70 OFFCURVE",
"318 13 OFFCURVE",
"231 13 CURVE SMOOTH",
"144 13 OFFCURVE",
"85 70 OFFCURVE",
"85 155 CURVE SMOOTH",
"85 201 LINE",
"63 201 LINE",
"63 158 LINE SMOOTH",
"63 58 OFFCURVE",
"130 -8 OFFCURVE",
"231 -8 CURVE SMOOTH"
);
}
);
width = 473;
},
{
layerId = "4E2227F3-52E4-4048-A8EE-327B486EF0A4";
paths = (
{
closed = 1;
nodes = (
"353 -7 OFFCURVE",
"438 59 OFFCURVE",
"438 172 CURVE SMOOTH",
"438 276 LINE SMOOTH",
"438 349 OFFCURVE",
"398 427 OFFCURVE",
"340 433 CURVE",
"438 530 LINE",
"438 700 LINE",
"47 700 LINE",
"47 530 LINE",
"212 530 LINE",
"84 417 LINE",
"185 312 LINE",
"201 333 OFFCURVE",
"210 340 OFFCURVE",
"226 340 CURVE SMOOTH",
"240 340 OFFCURVE",
"250 327 OFFCURVE",
"250 308 CURVE SMOOTH",
"250 185 LINE SMOOTH",
"250 166 OFFCURVE",
"240 153 OFFCURVE",
"226 153 CURVE SMOOTH",
"212 153 OFFCURVE",
"202 166 OFFCURVE",
"202 185 CURVE SMOOTH",
"202 232 LINE",
"14 232 LINE",
"14 172 LINE SMOOTH",
"14 59 OFFCURVE",
"99 -7 OFFCURVE",
"226 -7 CURVE SMOOTH"
);
}
);
width = 454;
}
);
unicode = 0033;
},
{
glyphname = four;
lastChange = "2016-12-01 05:29:17 +0000";
layers = (
{
layerId = "262880E7-CFE1-4BDA-902E-E24798F3240A";
paths = (
{
closed = 1;
nodes = (
"324 222 LINE",
"324 -7 LINE",
"346 -7 LINE",
"346 415 LINE",
"324 415 LINE"
);
},
{
closed = 1;
nodes = (
"59 222 LINE",
"273 700 LINE",
"249 700 LINE",
"36 222 LINE",
"36 202 LINE",
"399 202 LINE",
"399 222 LINE"
);
}
);
width = 435;
},
{
layerId = "4E2227F3-52E4-4048-A8EE-327B486EF0A4";
paths = (
{
closed = 1;
nodes = (
"262 337 LINE",
"262 0 LINE",
"451 0 LINE",
"451 480 LINE",
"293 480 LINE"
);
},
{
closed = 1;
nodes = (
"226 337 LINE",
"333 700 LINE",
"136 700 LINE",
"8 302 LINE",
"8 167 LINE",
"502 167 LINE",
"502 337 LINE"
);
}
);
width = 510;
}
);
unicode = 0034;
},
{
glyphname = five;
lastChange = "2016-12-01 04:49:42 +0000";
layers = (
{
layerId = "262880E7-CFE1-4BDA-902E-E24798F3240A";
paths = (
{
closed = 1;
nodes = (
"318 -9 OFFCURVE",
"382 57 OFFCURVE",
"382 157 CURVE SMOOTH",
"382 262 LINE SMOOTH",
"382 362 OFFCURVE",
"318 428 OFFCURVE",
"222 428 CURVE SMOOTH",
"138 428 OFFCURVE",
"77 381 OFFCURVE",
"77 311 CURVE",
"77 307 LINE",
"96 307 LINE",
"96 311 LINE SMOOTH",
"96 369 OFFCURVE",
"151 407 OFFCURVE",
"222 407 CURVE SMOOTH",
"305 407 OFFCURVE",
"360 350 OFFCURVE",
"360 265 CURVE SMOOTH",
"360 154 LINE SMOOTH",
"360 69 OFFCURVE",
"305 12 OFFCURVE",
"222 12 CURVE SMOOTH",
"140 12 OFFCURVE",
"85 69 OFFCURVE",
"85 154 CURVE SMOOTH",
"85 158 LINE",
"63 158 LINE",
"63 157 LINE SMOOTH",
"63 57 OFFCURVE",
"127 -9 OFFCURVE",
"222 -9 CURVE SMOOTH"
);
},
{
closed = 1;
nodes = (
"96 310 LINE",
"98 679 LINE",
"379 679 LINE",
"379 700 LINE",
"76 700 LINE",
"77 310 LINE"
);
}
);
width = 429;
},
{
layerId = "4E2227F3-52E4-4048-A8EE-327B486EF0A4";
paths = (
{
closed = 1;
nodes = (
"349 -8 OFFCURVE",
"434 58 OFFCURVE",
"434 171 CURVE SMOOTH",
"434 260 LINE SMOOTH",
"434 374 OFFCURVE",
"375 444 OFFCURVE",
"273 444 CURVE SMOOTH",
"170 444 OFFCURVE",
"119 374 OFFCURVE",
"119 260 CURVE SMOOTH",
"119 256 LINE",
"196 256 LINE",
"196 257 LINE SMOOTH",
"196 272 OFFCURVE",
"206 282 OFFCURVE",
"221 282 CURVE SMOOTH",
"236 282 OFFCURVE",
"246 269 OFFCURVE",
"246 250 CURVE SMOOTH",
"246 184 LINE SMOOTH",
"246 165 OFFCURVE",
"236 152 OFFCURVE",
"221 152 CURVE SMOOTH",
"207 152 OFFCURVE",
"197 165 OFFCURVE",
"197 184 CURVE SMOOTH",
"197 185 LINE",
"9 185 LINE",
"9 171 LINE SMOOTH",
"9 58 OFFCURVE",
"92 -8 OFFCURVE",
"221 -8 CURVE SMOOTH"
);
},
{
closed = 1;
nodes = (
"196 254 LINE",
"196 530 LINE",
"432 530 LINE",
"432 700 LINE",
"8 700 LINE",
"8 254 LINE"
);
}
);
width = 443;
}
);
unicode = 0035;
},
{
glyphname = six;
lastChange = "2016-12-01 05:29:17 +0000";
layers = (
{
layerId = "262880E7-CFE1-4BDA-902E-E24798F3240A";
paths = (
{
closed = 1;
nodes = (
"352 -8 OFFCURVE",
"418 58 OFFCURVE",
"418 158 CURVE SMOOTH",
"418 262 LINE SMOOTH",
"418 362 OFFCURVE",
"352 428 OFFCURVE",
"250 428 CURVE SMOOTH",
"180 428 OFFCURVE",
"126 395 OFFCURVE",
"100 340 CURVE",
"103 340 LINE",
"103 545 LINE SMOOTH",
"103 630 OFFCURVE",
"162 687 OFFCURVE",
"250 687 CURVE SMOOTH",
"338 687 OFFCURVE",
"396 630 OFFCURVE",
"396 545 CURVE SMOOTH",
"396 500 LINE",
"418 500 LINE",
"418 542 LINE SMOOTH",
"418 642 OFFCURVE",
"352 708 OFFCURVE",
"250 708 CURVE SMOOTH",
"148 708 OFFCURVE",
"81 642 OFFCURVE",
"81 542 CURVE SMOOTH",
"81 158 LINE SMOOTH",
"81 58 OFFCURVE",
"148 -8 OFFCURVE",
"250 -8 CURVE SMOOTH"
);
},
{
closed = 1;
nodes = (
"162 13 OFFCURVE",
"103 70 OFFCURVE",
"103 155 CURVE SMOOTH",
"103 265 LINE SMOOTH",
"103 350 OFFCURVE",
"162 407 OFFCURVE",
"250 407 CURVE SMOOTH",
"338 407 OFFCURVE",
"396 350 OFFCURVE",
"396 265 CURVE SMOOTH",
"396 155 LINE SMOOTH",
"396 70 OFFCURVE",
"338 13 OFFCURVE",
"250 13 CURVE SMOOTH"
);
}
);
width = 481;
},
{
layerId = "4E2227F3-52E4-4048-A8EE-327B486EF0A4";
paths = (
{
closed = 1;
nodes = (
"357 -8 OFFCURVE",
"442 58 OFFCURVE",
"442 171 CURVE SMOOTH",
"442 260 LINE SMOOTH",
"442 390 OFFCURVE",
"356 444 OFFCURVE",
"270 444 CURVE SMOOTH",
"174 444 OFFCURVE",
"155 381 OFFCURVE",
"157 367 CURVE",
"206 367 LINE",
"206 511 LINE SMOOTH",
"206 530 OFFCURVE",
"216 543 OFFCURVE",
"230 543 CURVE SMOOTH",
"244 543 OFFCURVE",
"254 530 OFFCURVE",
"254 511 CURVE SMOOTH",
"254 470 LINE",
"442 470 LINE",
"442 524 LINE SMOOTH",
"442 638 OFFCURVE",
"357 708 OFFCURVE",
"230 708 CURVE SMOOTH",
"103 708 OFFCURVE",
"18 638 OFFCURVE",
"18 524 CURVE SMOOTH",
"18 171 LINE SMOOTH",
"18 58 OFFCURVE",
"103 -8 OFFCURVE",
"230 -8 CURVE SMOOTH"
);
},
{
closed = 1;
nodes = (
"216 152 OFFCURVE",
"206 165 OFFCURVE",
"206 184 CURVE SMOOTH",
"206 252 LINE SMOOTH",
"206 271 OFFCURVE",
"216 284 OFFCURVE",
"230 284 CURVE SMOOTH",
"244 284 OFFCURVE",
"254 271 OFFCURVE",
"254 252 CURVE SMOOTH",
"254 184 LINE SMOOTH",
"254 165 OFFCURVE",
"244 152 OFFCURVE",
"230 152 CURVE SMOOTH"
);
}
);
width = 456;
}
);
unicode = 0036;
},
{
glyphname = seven;
lastChange = "2016-12-01 05:29:17 +0000";
layers = (
{
layerId = "262880E7-CFE1-4BDA-902E-E24798F3240A";
paths = (
{
closed = 1;
nodes = (
"140 0 LINE",
"368 679 LINE",
"368 700 LINE",
"27 700 LINE",
"27 679 LINE",
"344 679 LINE",
"115 0 LINE"
);
}
);
width = 395;
},
{
layerId = "4E2227F3-52E4-4048-A8EE-327B486EF0A4";
paths = (
{
closed = 1;
nodes = (
"232 0 LINE",
"399 530 LINE",
"399 700 LINE",
"6 700 LINE",
"6 530 LINE",
"201 530 LINE",
"36 0 LINE"
);
}
);
width = 405;
}
);
unicode = 0037;
},
{
glyphname = eight;
lastChange = "2016-12-01 05:29:17 +0000";
layers = (
{
layerId = "262880E7-CFE1-4BDA-902E-E24798F3240A";
paths = (
{
closed = 1;
nodes = (
"345 -18 OFFCURVE",
"412 54 OFFCURVE",
"412 161 CURVE SMOOTH",
"412 215 LINE SMOOTH",
"412 322 OFFCURVE",
"345 394 OFFCURVE",
"243 394 CURVE SMOOTH",
"141 394 OFFCURVE",
"72 322 OFFCURVE",
"72 215 CURVE SMOOTH",
"72 161 LINE SMOOTH",
"72 54 OFFCURVE",
"141 -18 OFFCURVE",
"243 -18 CURVE SMOOTH"
);
},
{
closed = 1;
nodes = (
"154 2 OFFCURVE",
"94 66 OFFCURVE",
"94 161 CURVE SMOOTH",
"94 215 LINE SMOOTH",
"94 311 OFFCURVE",
"154 375 OFFCURVE",
"243 375 CURVE SMOOTH",
"332 375 OFFCURVE",
"390 311 OFFCURVE",
"390 215 CURVE SMOOTH",
"390 161 LINE SMOOTH",
"390 66 OFFCURVE",
"332 2 OFFCURVE",
"243 2 CURVE SMOOTH"
);
},
{
closed = 1;
nodes = (
"345 375 OFFCURVE",
"410 439 OFFCURVE",
"410 534 CURVE SMOOTH",
"410 549 LINE SMOOTH",
"410 644 OFFCURVE",
"345 708 OFFCURVE",
"243 708 CURVE SMOOTH",
"141 708 OFFCURVE",
"74 644 OFFCURVE",
"74 549 CURVE SMOOTH",
"74 534 LINE SMOOTH",
"74 439 OFFCURVE",
"141 375 OFFCURVE",
"243 375 CURVE SMOOTH"
);
},
{
closed = 1;
nodes = (
"154 395 OFFCURVE",
"96 451 OFFCURVE",
"96 534 CURVE SMOOTH",
"96 549 LINE SMOOTH",
"96 633 OFFCURVE",
"154 689 OFFCURVE",
"243 689 CURVE SMOOTH",
"332 689 OFFCURVE",
"388 633 OFFCURVE",
"388 549 CURVE SMOOTH",
"388 534 LINE SMOOTH",
"388 451 OFFCURVE",
"332 395 OFFCURVE",
"243 395 CURVE SMOOTH"
);
}
);
width = 484;
},
{
layerId = "4E2227F3-52E4-4048-A8EE-327B486EF0A4";
paths = (
{
closed = 1;
nodes = (
"383 -8 OFFCURVE",
"469 69 OFFCURVE",
"469 194 CURVE SMOOTH",
"469 241 LINE SMOOTH",
"469 427 OFFCURVE",
"278 403 OFFCURVE",
"243 403 CURVE SMOOTH",
"208 403 OFFCURVE",
"17 427 OFFCURVE",
"17 241 CURVE SMOOTH",
"17 195 LINE SMOOTH",
"17 69 OFFCURVE",
"103 -8 OFFCURVE",
"243 -8 CURVE SMOOTH"
);
},
{
closed = 1;
nodes = (
"219 152 OFFCURVE",
"205 171 OFFCURVE",
"205 203 CURVE SMOOTH",
"205 237 LINE SMOOTH",
"205 269 OFFCURVE",
"219 288 OFFCURVE",
"243 288 CURVE",
"267 288 OFFCURVE",
"281 269 OFFCURVE",
"281 237 CURVE SMOOTH",
"281 203 LINE SMOOTH",
"281 171 OFFCURVE",
"267 152 OFFCURVE",
"243 152 CURVE SMOOTH"
);
},
{
closed = 1;
nodes = (
"343 294 OFFCURVE",
"470 339 OFFCURVE",
"470 486 CURVE SMOOTH",
"470 525 LINE SMOOTH",
"470 650 OFFCURVE",
"384 708 OFFCURVE",
"243 708 CURVE SMOOTH",
"103 708 OFFCURVE",
"16 651 OFFCURVE",
"16 525 CURVE SMOOTH",
"16 487 LINE SMOOTH",
"16 339 OFFCURVE",
"133 294 OFFCURVE",
"243 294 CURVE SMOOTH"
);
},
{
closed = 1;
nodes = (
"219 422 OFFCURVE",
"204 441 OFFCURVE",
"204 473 CURVE SMOOTH",
"204 497 LINE SMOOTH",
"204 529 OFFCURVE",
"219 548 OFFCURVE",
"243 548 CURVE SMOOTH",
"267 548 OFFCURVE",
"282 529 OFFCURVE",
"282 497 CURVE SMOOTH",
"282 473 LINE SMOOTH",
"282 441 OFFCURVE",
"267 422 OFFCURVE",
"243 422 CURVE SMOOTH"
);
}
);
width = 486;
},
{
associatedMasterId = "262880E7-CFE1-4BDA-902E-E24798F3240A";
layerId = "B41EB33A-408D-4C01-B8DA-ABE53E8149E1";
name = "{95,100}";
paths = (
{
closed = 1;
nodes = (
"353 -14 OFFCURVE",
"430 61 OFFCURVE",
"430 175 CURVE SMOOTH",
"430 226 LINE SMOOTH",
"430 368 OFFCURVE",
"307 398 OFFCURVE",
"233 398 CURVE SMOOTH",
"158 398 OFFCURVE",
"34 368 OFFCURVE",
"34 226 CURVE SMOOTH",
"34 176 LINE SMOOTH",
"34 61 OFFCURVE",
"112 -14 OFFCURVE",
"233 -14 CURVE SMOOTH"
);
},
{
closed = 1;
nodes = (
"170 76 OFFCURVE",
"128 121 OFFCURVE",
"128 188 CURVE SMOOTH",
"128 225 LINE SMOOTH",
"128 293 OFFCURVE",
"170 337 OFFCURVE",
"233 337 CURVE SMOOTH",
"295 337 OFFCURVE",
"335 293 OFFCURVE",
"335 225 CURVE SMOOTH",
"335 188 LINE SMOOTH",
"335 121 OFFCURVE",
"295 76 OFFCURVE",
"233 76 CURVE SMOOTH"
);
},
{
closed = 1;
nodes = (
"336 340 OFFCURVE",
"419 395 OFFCURVE",
"419 513 CURVE SMOOTH",
"419 539 LINE SMOOTH",
"419 647 OFFCURVE",
"354 708 OFFCURVE",
"233 708 CURVE SMOOTH",
"112 708 OFFCURVE",
"45 647 OFFCURVE",
"45 539 CURVE SMOOTH",
"45 513 LINE SMOOTH",
"45 395 OFFCURVE",
"125 340 OFFCURVE",
"233 340 CURVE SMOOTH"
);
},
{
closed = 1;
nodes = (
"170 407 OFFCURVE",
"140 447 OFFCURVE",
"140 507 CURVE SMOOTH",
"140 517 LINE SMOOTH",
"140 579 OFFCURVE",
"170 618 OFFCURVE",
"233 618 CURVE SMOOTH",
"295 618 OFFCURVE",
"324 579 OFFCURVE",
"324 517 CURVE SMOOTH",
"324 507 LINE SMOOTH",
"324 447 OFFCURVE",
"295 407 OFFCURVE",
"233 407 CURVE SMOOTH"
);
}
);
width = 464;
}
);
unicode = 0038;
},
{
glyphname = colon;
lastChange = "2016-11-17 13:42:12 +0000";
layers = (
{
layerId = "262880E7-CFE1-4BDA-902E-E24798F3240A";
paths = (
{
closed = 1;
nodes = (
"177 350 OFFCURVE",
"196 368 OFFCURVE",
"196 391 CURVE SMOOTH",
"196 413 OFFCURVE",
"177 431 OFFCURVE",
"155 431 CURVE SMOOTH",
"134 431 OFFCURVE",
"115 413 OFFCURVE",
"115 391 CURVE SMOOTH",
"115 368 OFFCURVE",
"133 350 OFFCURVE",
"155 350 CURVE SMOOTH"
);
},
{
closed = 1;
nodes = (
"177 7 OFFCURVE",
"196 25 OFFCURVE",
"196 48 CURVE SMOOTH",
"196 70 OFFCURVE",
"177 88 OFFCURVE",
"155 88 CURVE SMOOTH",
"134 88 OFFCURVE",
"115 70 OFFCURVE",
"115 48 CURVE SMOOTH",
"115 25 OFFCURVE",
"133 7 OFFCURVE",
"155 7 CURVE SMOOTH"
);
}
);
width = 311;
},
{
layerId = "4E2227F3-52E4-4048-A8EE-327B486EF0A4";
paths = (
{
closed = 1;
nodes = (
"223 321 OFFCURVE",
"266 368 OFFCURVE",
"266 426 CURVE SMOOTH",
"266 484 OFFCURVE",
"214 530 OFFCURVE",
"161 530 CURVE SMOOTH",
"108 530 OFFCURVE",
"56 484 OFFCURVE",
"56 426 CURVE SMOOTH",
"56 368 OFFCURVE",
"99 321 OFFCURVE",
"161 321 CURVE SMOOTH"
);
},
{
closed = 1;
nodes = (
"223 0 OFFCURVE",
"266 47 OFFCURVE",
"266 105 CURVE SMOOTH",
"266 163 OFFCURVE",
"214 209 OFFCURVE",
"161 209 CURVE SMOOTH",
"108 209 OFFCURVE",
"56 163 OFFCURVE",
"56 105 CURVE SMOOTH",
"56 47 OFFCURVE",
"99 0 OFFCURVE",
"161 0 CURVE SMOOTH"
);
}
);
width = 318;
}
);
leftKerningGroup = colon;
unicode = 003A;
},
{
glyphname = comma;
lastChange = "2016-11-17 13:42:12 +0000";
layers = (
{
layerId = "262880E7-CFE1-4BDA-902E-E24798F3240A";
paths = (
{
closed = 1;
nodes = (
"130 -66 LINE",
"184 153 LINE",
"162 153 LINE",
"108 -66 LINE"
);
}
);
width = 293;
},
{
layerId = "4E2227F3-52E4-4048-A8EE-327B486EF0A4";
paths = (
{
closed = 1;
nodes = (
"146 -111 LINE",
"209 160 LINE",
"41 160 LINE",
"24 -111 LINE"
);
}
);
width = 233;
}
);
leftKerningGroup = comma;
rightKerningGroup = comma;
unicode = 002C;
},
{
glyphname = exclam;
lastChange = "2016-11-17 13:42:12 +0000";
layers = (
{
layerId = "262880E7-CFE1-4BDA-902E-E24798F3240A";
paths = (
{
closed = 1;
nodes = (
"160 220 LINE",
"160 700 LINE",
"138 700 LINE",
"138 220 LINE"
);
},
{
closed = 1;
nodes = (
"168 5 OFFCURVE",
"187 23 OFFCURVE",
"187 46 CURVE SMOOTH",
"187 68 OFFCURVE",
"168 86 OFFCURVE",
"146 86 CURVE SMOOTH",
"125 86 OFFCURVE",
"106 68 OFFCURVE",
"106 46 CURVE SMOOTH",
"106 23 OFFCURVE",
"124 5 OFFCURVE",
"146 5 CURVE SMOOTH"
);
}
);
width = 297;
},
{
layerId = "4E2227F3-52E4-4048-A8EE-327B486EF0A4";
paths = (
{
closed = 1;
nodes = (
"225 248 LINE",
"245 700 LINE",
"57 700 LINE",
"77 248 LINE"
);
},
{
closed = 1;
nodes = (
"212 0 OFFCURVE",
"255 47 OFFCURVE",
"255 105 CURVE SMOOTH",
"255 163 OFFCURVE",
"203 209 OFFCURVE",
"150 209 CURVE SMOOTH",
"97 209 OFFCURVE",
"45 163 OFFCURVE",
"45 105 CURVE SMOOTH",
"45 47 OFFCURVE",
"88 0 OFFCURVE",
"150 0 CURVE SMOOTH"
);
}
);
width = 302;
}
);
unicode = 0021;
},
{
glyphname = period;
lastChange = "2016-11-17 13:42:12 +0000";
layers = (
{
layerId = "262880E7-CFE1-4BDA-902E-E24798F3240A";
paths = (
{
closed = 1;
nodes = (
"177 7 OFFCURVE",
"196 25 OFFCURVE",
"196 48 CURVE SMOOTH",
"196 70 OFFCURVE",
"177 88 OFFCURVE",
"155 88 CURVE SMOOTH",
"134 88 OFFCURVE",
"115 70 OFFCURVE",
"115 48 CURVE SMOOTH",
"115 25 OFFCURVE",
"133 7 OFFCURVE",
"155 7 CURVE SMOOTH"
);
}
);
width = 313;
},
{
layerId = "4E2227F3-52E4-4048-A8EE-327B486EF0A4";
paths = (
{
closed = 1;
nodes = (
"211 -8 OFFCURVE",
"254 39 OFFCURVE",
"254 97 CURVE SMOOTH",
"254 155 OFFCURVE",
"202 201 OFFCURVE",
"149 201 CURVE SMOOTH",
"96 201 OFFCURVE",
"44 155 OFFCURVE",
"44 97 CURVE SMOOTH",
"44 39 OFFCURVE",
"87 -8 OFFCURVE",
"149 -8 CURVE SMOOTH"
);
}
);
width = 308;
}
);
leftKerningGroup = comma;
rightKerningGroup = comma;
unicode = 002E;
},
{
glyphname = question;
lastChange = "2016-12-01 05:41:50 +0000";
layers = (
{
layerId = "262880E7-CFE1-4BDA-902E-E24798F3240A";
paths = (
{
closed = 1;
nodes = (
"197 185 LINE",
"197 271 LINE",
"197 372 OFFCURVE",
"356 378 OFFCURVE",
"356 546 CURVE SMOOTH",
"356 645 OFFCURVE",
"294 709 OFFCURVE",
"202 709 CURVE SMOOTH",
"109 709 OFFCURVE",
"46 645 OFFCURVE",
"46 550 CURVE SMOOTH",
"46 500 LINE",
"68 500 LINE",
"68 550 LINE SMOOTH",
"68 633 OFFCURVE",
"122 688 OFFCURVE",
"202 688 CURVE SMOOTH",
"281 688 OFFCURVE",
"334 633 OFFCURVE",
"334 549 CURVE SMOOTH",
"334 395 OFFCURVE",
"173 394 OFFCURVE",
"173 271 CURVE",
"173 185 LINE"
);
},
{
closed = 1;
nodes = (
"209 5 OFFCURVE",
"228 23 OFFCURVE",
"228 46 CURVE SMOOTH",
"228 68 OFFCURVE",
"209 86 OFFCURVE",
"187 86 CURVE SMOOTH",
"166 86 OFFCURVE",
"147 68 OFFCURVE",
"147 46 CURVE SMOOTH",
"147 23 OFFCURVE",
"165 5 OFFCURVE",
"187 5 CURVE SMOOTH"
);
}
);
width = 405;
},
{
layerId = "4E2227F3-52E4-4048-A8EE-327B486EF0A4";
paths = (
{
closed = 1;
nodes = (
"321 236 LINE",
"321 252 LINE",
"321 339 OFFCURVE",
"473 338 OFFCURVE",
"473 503 CURVE SMOOTH",
"473 627 OFFCURVE",
"386 710 OFFCURVE",
"249 710 CURVE SMOOTH",
"107 710 OFFCURVE",
"10 620 OFFCURVE",
"10 488 CURVE SMOOTH",
"10 478 LINE",
"198 469 LINE",
"198 488 LINE SMOOTH",
"198 517 OFFCURVE",
"214 539 OFFCURVE",
"244 539 CURVE SMOOTH",
"268 539 OFFCURVE",
"283 522 OFFCURVE",
"283 494 CURVE SMOOTH",
"283 418 OFFCURVE",
"135 410 OFFCURVE",
"135 264 CURVE",
"135 236 LINE"
);
},
{
closed = 1;
nodes = (
"288 -5 OFFCURVE",
"332 38 OFFCURVE",
"332 91 CURVE SMOOTH",
"332 144 OFFCURVE",
"287 187 OFFCURVE",
"236 187 CURVE SMOOTH",
"184 187 OFFCURVE",
"140 144 OFFCURVE",
"140 90 CURVE SMOOTH",
"140 38 OFFCURVE",
"182 -5 OFFCURVE",
"235 -5 CURVE SMOOTH"
);
}
);
width = 483;
}
);
unicode = 003F;
},
{
glyphname = quotedbl;
lastChange = "2016-12-01 04:50:09 +0000";
layers = (
{
layerId = "262880E7-CFE1-4BDA-902E-E24798F3240A";
paths = (
{
closed = 1;
nodes = (
"163 500 LINE",
"166 692 LINE",
"140 692 LINE",
"143 500 LINE"
);
},
{
closed = 1;
nodes = (
"75 500 LINE",
"78 692 LINE",
"52 692 LINE",
"55 500 LINE"
);
}
);
width = 218;
},
{
layerId = "4E2227F3-52E4-4048-A8EE-327B486EF0A4";
paths = (
{
closed = 1;
nodes = (
"378 460 LINE",
"398 700 LINE",
"220 700 LINE",
"240 460 LINE"
);
},
{
closed = 1;
nodes = (
"152 460 LINE",
"172 700 LINE",
"-6 700 LINE",
"14 460 LINE"
);
}
);
width = 392;
}
);
leftKerningGroup = quotedbl;
leftMetricsKey = "=quotesingle";
rightKerningGroup = quotedbl;
rightMetricsKey = "=quotesingle";
unicode = 0022;
},
{
glyphname = quotesingle;
lastChange = "2016-12-01 04:50:09 +0000";
layers = (
{
layerId = "262880E7-CFE1-4BDA-902E-E24798F3240A";
paths = (
{
closed = 1;
nodes = (
"75 507 LINE",
"78 697 LINE",
"52 697 LINE",
"55 507 LINE"
);
}
);
width = 130;
},
{
layerId = "4E2227F3-52E4-4048-A8EE-327B486EF0A4";
paths = (
{
closed = 1;
nodes = (
"162 460 LINE",
"182 700 LINE",
"-6 700 LINE",
"14 460 LINE"
);
}
);
width = 176;
}
);
leftKerningGroup = quotedbl;
leftMetricsKey = "=n-20";
rightKerningGroup = quotedbl;
rightMetricsKey = "=|n-20";
unicode = 0027;
},
{
glyphname = semicolon;
lastChange = "2016-11-17 13:42:12 +0000";
layers = (
{
layerId = "262880E7-CFE1-4BDA-902E-E24798F3240A";
paths = (
{
closed = 1;
nodes = (
"133 -60 LINE",
"168 147 LINE",
"144 147 LINE",
"112 -60 LINE"
);
},
{
closed = 1;
nodes = (
"174 370 OFFCURVE",
"193 388 OFFCURVE",
"193 411 CURVE",
"193 433 OFFCURVE",
"174 451 OFFCURVE",
"152 451 CURVE SMOOTH",
"131 451 OFFCURVE",
"112 433 OFFCURVE",
"112 411 CURVE SMOOTH",
"112 388 OFFCURVE",
"130 370 OFFCURVE",
"152 370 CURVE SMOOTH"
);
}
);
width = 298;
},
{
layerId = "4E2227F3-52E4-4048-A8EE-327B486EF0A4";
paths = (
{
closed = 1;
nodes = (
"154 -111 LINE",
"217 160 LINE",
"49 160 LINE",
"32 -111 LINE"
);
},
{
closed = 1;
nodes = (
"191 291 OFFCURVE",
"234 338 OFFCURVE",
"234 396 CURVE SMOOTH",
"234 454 OFFCURVE",
"182 500 OFFCURVE",
"129 500 CURVE SMOOTH",
"76 500 OFFCURVE",
"24 454 OFFCURVE",
"24 396 CURVE SMOOTH",
"24 338 OFFCURVE",
"67 291 OFFCURVE",
"129 291 CURVE SMOOTH"
);
}
);
width = 258;
}
);
leftKerningGroup = colon;
unicode = 003B;
},
{
glyphname = slash;
lastChange = "2016-11-17 13:42:12 +0000";
layers = (
{
layerId = "262880E7-CFE1-4BDA-902E-E24798F3240A";
paths = (
{
closed = 1;
nodes = (
"22 0 LINE",
"218 700 LINE",
"196 700 LINE",
"0 0 LINE"
);
}
);
width = 218;
},
{
layerId = "4E2227F3-52E4-4048-A8EE-327B486EF0A4";
paths = (
{
closed = 1;
nodes = (
"188 0 LINE",
"442 700 LINE",
"254 700 LINE",
"0 0 LINE"
);
}
);
width = 442;
}
);
unicode = 002F;
},
{
glyphname = emdash;
lastChange = "2016-11-17 13:42:12 +0000";
layers = (
{
layerId = "262880E7-CFE1-4BDA-902E-E24798F3240A";
paths = (
{
closed = 1;
nodes = (
"423 251 LINE",
"423 272 LINE",
"23 272 LINE",
"23 251 LINE"
);
}
);
width = 446;
},
{
layerId = "4E2227F3-52E4-4048-A8EE-327B486EF0A4";
paths = (
{
closed = 1;
nodes = (
"419 165 LINE",
"419 325 LINE",
"12 325 LINE",
"12 165 LINE"
);
}
);
width = 431;
}
);
leftKerningGroup = hyphen;
rightKerningGroup = hyphen;
unicode = 2014;
},
{
glyphname = hyphen;
lastChange = "2016-11-17 13:42:12 +0000";
layers = (
{
layerId = "262880E7-CFE1-4BDA-902E-E24798F3240A";
paths = (
{
closed = 1;
nodes = (
"276 251 LINE",
"276 272 LINE",
"23 272 LINE",
"23 251 LINE"
);
}
);
width = 299;
},
{
layerId = "4E2227F3-52E4-4048-A8EE-327B486EF0A4";
paths = (
{
closed = 1;
nodes = (
"299 165 LINE",
"299 325 LINE",
"12 325 LINE",
"12 165 LINE"
);
}
);
width = 311;
}
);
leftKerningGroup = hyphen;
rightKerningGroup = hyphen;
unicode = 002D;
},
{
glyphname = quotedblleft;
lastChange = "2016-11-17 21:08:20 +0000";
layers = (
{
layerId = "262880E7-CFE1-4BDA-902E-E24798F3240A";
paths = (
{
closed = 1;
nodes = (
"94 507 LINE",
"26 697 LINE",
"0 697 LINE",
"74 507 LINE"
);
},
{
closed = 1;
nodes = (
"194 507 LINE",
"126 697 LINE",
"100 697 LINE",
"174 507 LINE"
);
}
);
width = 194;
},
{
layerId = "4E2227F3-52E4-4048-A8EE-327B486EF0A4";
paths = (
{
closed = 1;
nodes = (
"253 460 LINE",
"187 700 LINE",
"0 700 LINE",
"111 460 LINE"
);
},
{
closed = 1;
nodes = (
"423 460 LINE",
"404 700 LINE",
"219 700 LINE",
"293 460 LINE"
);
}
);
width = 423;
}
);
leftMetricsKey = "=quoteleft";
rightMetricsKey = "=quoteleft";
unicode = 201C;
},
{
glyphname = quoteleft;
lastChange = "2016-11-17 17:37:23 +0000";
layers = (
{
layerId = "262880E7-CFE1-4BDA-902E-E24798F3240A";
paths = (
{
closed = 1;
nodes = (
"26 697 LINE",
"0 697 LINE",
"74 507 LINE",
"94 507 LINE"
);
}
);
width = 94;
},
{
layerId = "4E2227F3-52E4-4048-A8EE-327B486EF0A4";
paths = (
{
closed = 1;
nodes = (
"187.96 700 LINE",
"-0.04 700 LINE",
"83.402 460 LINE",
"231.402 460 LINE"
);
}
);
width = 231;
}
);
unicode = 2018;
},
{
glyphname = dollar;
lastChange = "2016-12-01 04:50:03 +0000";
layers = (
{
layerId = "262880E7-CFE1-4BDA-902E-E24798F3240A";
paths = (
{
closed = 1;
nodes = (
"349 -5 OFFCURVE",
"412 50 OFFCURVE",
"412 149 CURVE SMOOTH",
"412 255 OFFCURVE",
"339 307 OFFCURVE",
"257 361 CURVE SMOOTH",
"176 414 OFFCURVE",
"112 457 OFFCURVE",
"112 550 CURVE SMOOTH",
"112 634 OFFCURVE",
"164 684 OFFCURVE",
"248 684 CURVE SMOOTH",
"332 684 OFFCURVE",
"384 635 OFFCURVE",
"384 548 CURVE SMOOTH",
"384 500 LINE",
"406 500 LINE",
"406 550 LINE SMOOTH",
"406 650 OFFCURVE",
"346 705 OFFCURVE",
"248 705 CURVE SMOOTH",
"150 705 OFFCURVE",
"90 649 OFFCURVE",
"90 553 CURVE SMOOTH",
"90 446 OFFCURVE",
"165 394 OFFCURVE",
"243 342 CURVE SMOOTH",
"320 291 OFFCURVE",
"390 248 OFFCURVE",
"390 152 CURVE SMOOTH",
"390 67 OFFCURVE",
"335 15 OFFCURVE",
"250 15 CURVE SMOOTH",
"165 15 OFFCURVE",
"118 68 OFFCURVE",
"118 154 CURVE SMOOTH",
"118 200 LINE",
"96 200 LINE",
"96 150 LINE SMOOTH",
"96 50 OFFCURVE",
"152 -5 OFFCURVE",
"251 -5 CURVE SMOOTH"
);
},
{
closed = 1;
nodes = (
"265 -88 LINE",
"265 2 LINE",
"243 2 LINE",
"243 -88 LINE"
);
},
{
closed = 1;
nodes = (
"258 702 LINE",
"258 792 LINE",
"236 792 LINE",
"236 702 LINE"
);
}
);
width = 502;
},
{
layerId = "4E2227F3-52E4-4048-A8EE-327B486EF0A4";
paths = (
{
closed = 1;
nodes = (
"350 -8 OFFCURVE",
"436 70 OFFCURVE",
"436 187 CURVE SMOOTH",
"436 288 OFFCURVE",
"373 338 OFFCURVE",
"271 412 CURVE SMOOTH",
"208 458 OFFCURVE",
"192 475 OFFCURVE",
"192 508 CURVE SMOOTH",
"192 534 OFFCURVE",
"202 548 OFFCURVE",
"219 548 CURVE SMOOTH",
"235 548 OFFCURVE",
"246 534 OFFCURVE",
"246 514 CURVE SMOOTH",
"246 490 LINE",
"431 490 LINE",
"431 509 LINE SMOOTH",
"431 628 OFFCURVE",
"347 708 OFFCURVE",
"220 708 CURVE SMOOTH",
"91 708 OFFCURVE",
"7 628 OFFCURVE",
"7 510 CURVE SMOOTH",
"7 387 OFFCURVE",
"99 322 OFFCURVE",
"169 272 CURVE SMOOTH",
"235 225 OFFCURVE",
"251 211 OFFCURVE",
"251 186 CURVE SMOOTH",
"251 164 OFFCURVE",
"240 152 OFFCURVE",
"224 152 CURVE SMOOTH",
"208 152 OFFCURVE",
"197 166 OFFCURVE",
"197 188 CURVE SMOOTH",
"197 211 LINE",
"12 211 LINE",
"12 180 LINE SMOOTH",
"12 70 OFFCURVE",
"94 -8 OFFCURVE",
"222 -8 CURVE SMOOTH"
);
},
{
closed = 1;
nodes = (
"279 -68 LINE",
"276 53 LINE",
"163 53 LINE",
"160 -68 LINE"
);
},
{
closed = 1;
nodes = (
"276 657 LINE",
"279 778 LINE",
"162 778 LINE",
"165 657 LINE"
);
}
);
width = 443;
}
);
unicode = 0024;
},
{
glyphname = at;
lastChange = "2016-11-17 13:44:41 +0000";
layers = (
{
components = (
{
name = a.alt;
transform = "{0.6667, 0, 0, 0.6667, 284, 112}";
}
);
layerId = "262880E7-CFE1-4BDA-902E-E24798F3240A";
paths = (
{
closed = 1;
nodes = (
"640 -71 OFFCURVE",
"802 92 OFFCURVE",
"802 290 CURVE SMOOTH",
"802 488 OFFCURVE",
"640 651 OFFCURVE",
"441 651 CURVE SMOOTH",
"242 651 OFFCURVE",
"80 488 OFFCURVE",
"80 290 CURVE SMOOTH",
"80 92 OFFCURVE",
"242 -71 OFFCURVE",
"441 -71 CURVE SMOOTH"
);
},
{
closed = 1;
nodes = (
"254 -50 OFFCURVE",
"102 102 OFFCURVE",
"102 290 CURVE SMOOTH",
"102 478 OFFCURVE",
"254 630 OFFCURVE",
"441 630 CURVE SMOOTH",
"628 630 OFFCURVE",
"780 478 OFFCURVE",
"780 290 CURVE SMOOTH",
"780 102 OFFCURVE",
"628 -50 OFFCURVE",
"441 -50 CURVE SMOOTH"
);
}
);
width = 882;
},
{
components = (
{
name = a.alt;
transform = "{0.5714, 0, 0, 0.5714, 284, 143}";
}
);
layerId = "4E2227F3-52E4-4048-A8EE-327B486EF0A4";
paths = (
{
closed = 1;
nodes = (
"623 -62 OFFCURVE",
"782 96 OFFCURVE",
"782 292 CURVE SMOOTH",
"782 486 OFFCURVE",
"623 644 OFFCURVE",
"429 644 CURVE SMOOTH",
"235 644 OFFCURVE",
"77 486 OFFCURVE",
"77 292 CURVE SMOOTH",
"77 96 OFFCURVE",
"235 -62 OFFCURVE",
"429 -62 CURVE SMOOTH"
);
},
{
closed = 1;
nodes = (
"272 28 OFFCURVE",
"167 134 OFFCURVE",
"167 292 CURVE SMOOTH",
"167 449 OFFCURVE",
"272 554 OFFCURVE",
"429 554 CURVE SMOOTH",
"587 554 OFFCURVE",
"692 449 OFFCURVE",
"692 292 CURVE SMOOTH",
"692 134 OFFCURVE",
"587 28 OFFCURVE",
"429 28 CURVE SMOOTH"
);
}
);
width = 862;
}
);
unicode = 0040;
},
{
glyphname = copyright;
lastChange = "2016-12-01 05:29:17 +0000";
layers = (
{
components = (
{
name = C;
transform = "{0.5, 0, 0, 0.5, 314, 111}";
}
);
layerId = "262880E7-CFE1-4BDA-902E-E24798F3240A";
paths = (
{
closed = 1;
nodes = (
"640 -71 OFFCURVE",
"802 92 OFFCURVE",
"802 290 CURVE SMOOTH",
"802 488 OFFCURVE",
"640 651 OFFCURVE",
"441 651 CURVE SMOOTH",
"242 651 OFFCURVE",
"80 488 OFFCURVE",
"80 290 CURVE SMOOTH",
"80 92 OFFCURVE",
"242 -71 OFFCURVE",
"441 -71 CURVE SMOOTH"
);
},
{
closed = 1;
nodes = (
"254 -50 OFFCURVE",
"102 102 OFFCURVE",
"102 290 CURVE SMOOTH",
"102 478 OFFCURVE",
"254 630 OFFCURVE",
"441 630 CURVE SMOOTH",
"628 630 OFFCURVE",
"780 478 OFFCURVE",
"780 290 CURVE SMOOTH",
"780 102 OFFCURVE",
"628 -50 OFFCURVE",
"441 -50 CURVE SMOOTH"
);
}
);
width = 882;
},
{
components = (
{
name = C;
transform = "{0.5, 0, 0, 0.5, 309, 111}";
}
);
layerId = "4E2227F3-52E4-4048-A8EE-327B486EF0A4";
paths = (
{
closed = 1;
nodes = (
"623 -62 OFFCURVE",
"782 96 OFFCURVE",
"782 292 CURVE SMOOTH",
"782 486 OFFCURVE",
"623 644 OFFCURVE",
"429 644 CURVE SMOOTH",
"235 644 OFFCURVE",
"77 486 OFFCURVE",
"77 292 CURVE SMOOTH",
"77 96 OFFCURVE",
"235 -62 OFFCURVE",
"429 -62 CURVE SMOOTH"
);
},
{
closed = 1;
nodes = (
"272 28 OFFCURVE",
"167 134 OFFCURVE",
"167 292 CURVE SMOOTH",
"167 449 OFFCURVE",
"272 554 OFFCURVE",
"429 554 CURVE SMOOTH",
"587 554 OFFCURVE",
"692 449 OFFCURVE",
"692 292 CURVE SMOOTH",
"692 134 OFFCURVE",
"587 28 OFFCURVE",
"429 28 CURVE SMOOTH"
);
}
);
width = 882;
}
);
unicode = 00A9;
},
{
glyphname = registered;
lastChange = "2016-12-01 05:29:17 +0000";
layers = (
{
components = (
{
name = R;
transform = "{0.5, 0, 0, 0.5, 331, 111}";
}
);
layerId = "262880E7-CFE1-4BDA-902E-E24798F3240A";
paths = (
{
closed = 1;
nodes = (
"640 -72 OFFCURVE",
"802 91 OFFCURVE",
"802 289 CURVE SMOOTH",
"802 487 OFFCURVE",
"640 650 OFFCURVE",
"441 650 CURVE SMOOTH",
"242 650 OFFCURVE",
"80 487 OFFCURVE",
"80 289 CURVE SMOOTH",
"80 91 OFFCURVE",
"242 -72 OFFCURVE",
"441 -72 CURVE SMOOTH"
);
},
{
closed = 1;
nodes = (
"254 -51 OFFCURVE",
"102 101 OFFCURVE",
"102 289 CURVE SMOOTH",
"102 477 OFFCURVE",
"254 629 OFFCURVE",
"441 629 CURVE SMOOTH",
"628 629 OFFCURVE",
"780 477 OFFCURVE",
"780 289 CURVE SMOOTH",
"780 101 OFFCURVE",
"628 -51 OFFCURVE",
"441 -51 CURVE SMOOTH"
);
}
);
width = 882;
},
{
components = (
{
name = R;
transform = "{0.5, 0, 0, 0.5, 313, 111}";
}
);
layerId = "4E2227F3-52E4-4048-A8EE-327B486EF0A4";
paths = (
{
closed = 1;
nodes = (
"623 -62 OFFCURVE",
"782 96 OFFCURVE",
"782 292 CURVE SMOOTH",
"782 486 OFFCURVE",
"623 644 OFFCURVE",
"429 644 CURVE SMOOTH",
"235 644 OFFCURVE",
"77 486 OFFCURVE",
"77 292 CURVE SMOOTH",
"77 96 OFFCURVE",
"235 -62 OFFCURVE",
"429 -62 CURVE SMOOTH"
);
},
{
closed = 1;
nodes = (
"272 28 OFFCURVE",
"167 134 OFFCURVE",
"167 292 CURVE SMOOTH",
"167 449 OFFCURVE",
"272 554 OFFCURVE",
"429 554 CURVE SMOOTH",
"587 554 OFFCURVE",
"692 449 OFFCURVE",
"692 292 CURVE SMOOTH",
"692 134 OFFCURVE",
"587 28 OFFCURVE",
"429 28 CURVE SMOOTH"
);
}
);
width = 882;
}
);
unicode = 00AE;
},
